<?xml version="1.0" encoding="UTF-8"?>
<svg version="1.1" xmlns="http://www.w3.org/2000/svg" width="1254" height="1254">
<path d="M0 0 C413.82 0 827.64 0 1254 0 C1254 413.82 1254 827.64 1254 1254 C840.18 1254 426.36 1254 0 1254 C0 840.18 0 426.36 0 0 Z " fill="#000000" transform="translate(0,0)"/>
<path d="M0 0 C15.95935089 -0.46850916 31.91645331 -0.82048447 47.88103104 -1.03624344 C55.29510384 -1.13912057 62.70489126 -1.27915922 70.11621094 -1.50878906 C76.58112061 -1.70899907 83.04292821 -1.83734881 89.51085162 -1.8817699 C92.93346042 -1.90772671 96.34720249 -1.9679942 99.76694489 -2.11460114 C120.55586351 -2.90748848 120.55586351 -2.90748848 126.28096008 1.92555237 C130.16508163 6.64947412 132.6234652 11.84481057 134.89846992 17.48472977 C136.59804203 21.36558896 138.91334306 24.77305399 141.3125 28.25 C141.81088379 29.0140918 142.30926758 29.77818359 142.82275391 30.56542969 C143.22413574 31.17805664 143.62551758 31.79068359 144.0390625 32.421875 C147.49574182 37.73513701 150.83873722 43.11832288 154.1875 48.5 C164.2199264 64.60769653 174.46547138 80.57886029 184.79589844 96.49682617 C188.05263683 101.52012379 191.27733693 106.56335655 194.49682617 111.6105957 C203.10339565 125.09894146 211.84843785 138.49172156 220.63212585 151.86500549 C226.11932477 160.22298043 231.56035286 168.61102892 237 177 C240.3603606 168.70883453 243.56170178 160.35837144 246.75 152 C247.31341693 150.52496094 247.87689513 149.04994529 248.44042969 147.57495117 C251.66507345 139.13200631 254.88124576 130.68585174 258.09375 122.23828125 C259.47897616 118.59628167 260.86439211 114.95435437 262.25 111.3125 C262.76028748 109.9712204 262.76028748 109.9712204 263.28088379 108.60284424 C268.44341787 95.03784301 273.66068347 81.49660567 279 68 C279.99 68 280.98 68 282 68 C283.54296875 69.61376953 283.54296875 69.61376953 285.1875 71.8828125 C286.10329834 73.12840942 286.10329834 73.12840942 287.03759766 74.39916992 C287.68519043 75.29869385 288.3327832 76.19821777 289 77.125 C290.36070451 78.97880086 291.72268985 80.83166226 293.0859375 82.68359375 C293.75463867 83.59608887 294.42333984 84.50858398 295.11230469 85.44873047 C297.5528343 88.74716999 300.07054933 91.97695683 302.625 95.1875 C311.21795518 106.03229129 319.63529913 117.02696667 327.8515625 128.16015625 C329.39251987 130.19702172 330.95182283 132.16294225 332.5859375 134.12109375 C333.01036133 134.64469482 333.43478516 135.1682959 333.87207031 135.70776367 C335.04845551 137.15578108 336.24619588 138.58637489 337.4453125 140.015625 C339.97422922 144.87012845 338.5500666 149.11648374 337.07589722 154.16427612 C335.81969055 158.05867951 334.50897209 161.93088996 333.1796875 165.80078125 C332.68341936 167.2634491 332.18779241 168.72633463 331.69276428 170.18942261 C330.36986957 174.09265056 329.03731524 177.99251456 327.70261765 181.89171982 C326.59390605 185.13469932 325.49093658 188.379619 324.38799953 191.62456608 C317.73862413 211.18602323 311.02057138 230.72333789 304.17138672 250.21582031 C300.19228799 261.54317353 296.30074405 272.89796124 292.44711304 284.26858521 C285.82341464 303.80801528 278.96234312 323.25318288 271.98608398 342.66915894 C268.25829263 353.05174733 264.57193136 363.44901493 260.88885498 373.84753418 C259.77518038 376.99141626 258.6603122 380.13487336 257.54541016 383.27832031 C256.85830489 385.21806582 256.17128874 387.15784291 255.484375 389.09765625 C255.0212944 390.40274895 255.0212944 390.40274895 254.54885864 391.73420715 C252.63808024 397.13649283 250.7925439 402.55733861 249 408 C248.34 408 247.68 408 247 408 C245.79833984 406.37036133 245.79833984 406.37036133 244.4609375 404.08203125 C243.96730713 403.24679932 243.47367676 402.41156738 242.96508789 401.55102539 C242.44035889 400.64731201 241.91562988 399.74359863 241.375 398.8125 C240.27786404 396.95281795 239.18020835 395.09344242 238.08203125 393.234375 C237.54916504 392.32751953 237.01629883 391.42066406 236.46728516 390.48632812 C232.94975683 384.52584418 229.27250019 378.66228037 225.62353516 372.78173828 C218.77681477 361.74685269 211.972429 350.68850984 205.23193359 339.58837891 C201.35259647 333.20589708 197.43949754 326.84550342 193.5 320.5 C188.92255661 313.12569542 184.38399508 305.72886074 179.875 298.3125 C179.28517334 297.3423999 178.69534668 296.3722998 178.08764648 295.37280273 C175.90991819 291.78989307 173.73290273 288.20655072 171.55615234 284.62304688 C165.95870551 275.4141491 160.28902075 266.25425688 154.5625 257.125 C149.39067422 248.88004147 144.32284537 240.5828033 139.34350586 232.22045898 C135.54681389 225.86337009 131.61561514 219.60050491 127.63989258 213.35424805 C123.68001894 207.11711029 119.82786788 200.81886207 116 194.5 C105.41215754 177.04870355 94.39880576 159.93297172 83 143 C83.28833514 145.41710738 83.57979557 147.83372728 83.875 150.25 C83.96378418 150.97711182 84.05256836 151.70422363 84.14404297 152.45336914 C84.79892249 157.69182981 85.6284163 162.87436412 86.6328125 168.05859375 C87.55859734 175.47472122 87.05280486 181.2178406 84.0625 188.07421875 C83.75061234 188.82445312 83.43872467 189.5746875 83.11738586 190.34765625 C82.09323032 192.80086787 81.04689364 195.24391609 80 197.6875 C79.2774607 199.40605668 78.5563736 201.12522458 77.83666992 202.8449707 C76.33555948 206.42398792 74.82498629 209.99878102 73.30615234 213.5703125 C71.03784745 218.9045706 68.79190499 224.24802561 66.55078125 229.59375 C64.47796795 234.53477065 62.40383565 239.47519687 60.31835938 244.41088867 C60.00222687 245.1599649 59.68609436 245.90904114 59.36038208 246.68081665 C58.74573596 248.13154205 58.12740809 249.58071402 57.50509644 251.02816772 C56.15554327 254.17920037 54.89406358 257.30255926 53.76025391 260.54077148 C51.4795749 266.91894988 49.5122554 270.31875914 43.41601562 273.45703125 C42.09633789 274.06611328 42.09633789 274.06611328 40.75 274.6875 C39.80833984 275.161875 38.86667969 275.63625 37.89648438 276.125 C35.78670894 277.18593099 33.66898765 278.23116056 31.54492188 279.26318359 C27.664888 281.16418641 23.82210303 283.12869334 19.984375 285.11328125 C19.29341232 285.47050766 18.60244965 285.82773407 17.89054871 286.19578552 C16.475144 286.92779278 15.05983612 287.6599873 13.6446228 288.3923645 C11.49401749 289.50308979 9.34084993 290.60868119 7.18676758 291.71264648 C-3.39560889 297.13881768 -13.8606308 302.7527257 -24.27099609 308.50244141 C-27.30399478 310.16681911 -30.34799528 311.80975582 -33.39453125 313.44921875 C-34.47468506 314.0309082 -35.55483887 314.61259766 -36.66772461 315.21191406 C-38.73915968 316.32639249 -40.81152373 317.43914675 -42.88500977 318.54980469 C-47.86975921 321.23661999 -52.6911869 323.98904903 -57.34814453 327.21704102 C-59 328 -59 328 -62 327 C-55.00712885 308.33065547 -48.00776788 289.66375777 -41 271 C-40.47563354 269.60309937 -40.47563354 269.60309937 -39.94067383 268.17797852 C-38.11090671 263.30439639 -36.27642478 258.43263412 -34.4375 253.5625 C-34.02846436 252.47364502 -33.61942871 251.38479004 -33.19799805 250.26293945 C-31.23917087 245.08990645 -29.14763419 240.02311013 -26.86401367 234.9855957 C-25.70192818 232.31499912 -24.80383599 229.59152582 -23.9375 226.8125 C-22.59140855 222.64277142 -20.95945872 218.91891745 -19 215 C-18.25551966 212.63157077 -17.58033201 210.25445414 -16.94140625 207.85546875 C-16.12859954 205.3900675 -15.19170444 203.1461758 -14.1171875 200.7890625 C-11.95500481 196.01603555 -10.23470042 191.14978385 -8.5625 186.1875 C-6.81158195 180.99242315 -4.9814723 175.8770686 -2.83203125 170.83203125 C0.94643753 161.89025093 4.28316597 152.77629421 7.68310547 143.68554688 C8.86230661 140.53392531 10.04613229 137.38406981 11.23046875 134.234375 C15.19791418 123.65815044 19.09151841 113.06440078 22.76132202 102.3807373 C24.51494597 97.29127944 26.48126764 92.34244249 28.61328125 87.3984375 C31.68579772 79.86860841 34.33885965 72.17076002 37.08544922 64.51733398 C37.93613747 62.17578392 38.81451007 59.84689404 39.703125 57.51953125 C41.43858514 52.83987063 41.43858514 52.83987063 41 48 C39.46058924 46.0882244 37.78040014 44.4807055 35.97265625 42.8203125 C34.13643366 41.1258972 32.50678889 39.38943976 30.875 37.5 C30.30007813 36.83484375 29.72515625 36.1696875 29.1328125 35.484375 C28.42898438 34.66453125 27.72515625 33.8446875 27 33 C24.91933327 30.58102528 22.83570695 28.16463021 20.75 25.75 C20.193125 25.10506592 19.63625 24.46013184 19.0625 23.7956543 C14.55632302 18.59706792 9.93313956 13.52026692 5.2421875 8.48828125 C0 2.67073171 0 2.67073171 0 0 Z " fill="#FDFCFC" transform="translate(335,426)"/>
<path d="M0 0 C140.91 0 281.82 0 427 0 C425.54902707 3.62743232 424.32280658 6.29162521 422.26953125 9.4921875 C421.72151855 10.35030029 421.17350586 11.20841309 420.60888672 12.0925293 C420.0160791 13.01074463 419.42327148 13.92895996 418.8125 14.875 C418.19391113 15.84026611 417.57532227 16.80553223 416.93798828 17.80004883 C411.83324988 25.74980927 406.66659503 33.65919592 401.4921875 41.5637207 C396.87477322 48.62717874 392.33727841 55.73754777 387.85498047 62.88745117 C387.40396973 63.60650635 386.95295898 64.32556152 386.48828125 65.06640625 C386.10196533 65.68459229 385.71564941 66.30277832 385.31762695 66.93969727 C384.66540161 67.95954712 384.66540161 67.95954712 384 69 C383.34680031 70.5248275 383.34680031 70.5248275 382.68040466 72.08045959 C379.60268161 75.43276566 379.00000567 75.46617535 374.65960693 75.75949097 C372.37197068 75.79470256 370.0836835 75.79659278 367.79589844 75.77294922 C366.5468573 75.78357895 365.29781616 75.79420868 364.01092529 75.80516052 C360.58910828 75.82844792 357.16923536 75.82524485 353.74750042 75.81029272 C350.17061494 75.80091571 346.59396479 75.82536039 343.01715088 75.84622192 C336.24566184 75.88057499 329.47451045 75.8844978 322.70295167 75.87749684 C314.99310853 75.87100677 307.28350278 75.89842654 299.57372999 75.92869925 C283.71578164 75.99020615 267.85807449 76.00911431 252 76 C255.33162131 77.13011341 258.66559048 78.25314259 262 79.375 C263.40185547 79.85066406 263.40185547 79.85066406 264.83203125 80.3359375 C270.1835184 82.13224088 275.5024755 83.71637989 281 85 C280.43252487 88.94355661 279.60577809 92.45252989 278.1640625 96.1640625 C277.76936768 97.18048828 277.37467285 98.19691406 276.96801758 99.24414062 C276.52482178 100.35982422 276.08162598 101.47550781 275.625 102.625 C275.15022217 103.82576172 274.67544434 105.02652344 274.1862793 106.26367188 C266.5740697 125.36104119 258.25346673 144.17365692 250 163 C249.63867981 163.82425476 249.27735962 164.64850952 248.90509033 165.4977417 C239.55203309 186.8162936 229.91592205 207.99980977 220.16265869 229.13780212 C214.06326736 242.3606708 208.02126485 255.60993965 201.97717285 268.8581543 C201.32451655 270.28869865 200.67176554 271.7191998 200.0189209 273.1496582 C197.76027984 278.09871041 195.50388852 283.04878157 193.25 288 C192.93970856 288.68146088 192.62941711 289.36292175 192.3097229 290.06503296 C187.99898981 299.53763062 183.76164314 309.0399335 179.5625 318.5625 C176.13653956 326.32789776 172.63773312 334.019634 168.71826172 341.54956055 C167.08745786 344.70621553 165.62674278 347.85280705 164.34375 351.16796875 C160.59257998 360.7897143 156.41535759 366.6110033 148 373 C147.23429688 373.6084375 146.46859375 374.216875 145.6796875 374.84375 C144.22354263 375.99196459 142.75724288 377.12741387 141.28125 378.25 C135.347845 382.80165315 129.63907466 387.64763285 123.87109375 392.40625 C122.39330764 393.62509515 120.91544168 394.8438435 119.4375 396.0625 C118.3247168 396.98011108 118.3247168 396.98011108 117.18945312 397.91625977 C112.72532732 401.59280327 108.23183409 405.22743789 103.703125 408.82421875 C100.02355882 411.78595049 96.38964016 414.80193345 92.75 417.8125 C87.0027304 422.56330779 81.20209597 427.22885618 75.31835938 431.80908203 C69.82184063 436.10421882 64.44718764 440.54271354 59.07250977 444.98876953 C53.75920286 449.38290194 48.40743237 453.72188397 43 458 C42.34 457.67 41.68 457.34 41 457 C57.68346007 408.7524516 57.68346007 408.7524516 63.4375 392.75 C69.5246222 375.81109551 75.35900274 358.78604176 81.14453125 341.7421875 C82.28312182 338.39037571 83.42251167 335.03883665 84.5625 331.6875 C84.85015228 330.8417038 85.13780457 329.99590759 85.43417358 329.1244812 C91.21949669 312.13243674 97.19825287 295.21056726 103.22680664 278.3034668 C103.91313685 276.37686647 104.5992589 274.45019197 105.28515625 272.5234375 C105.61290543 271.60305191 105.9406546 270.68266632 106.27833557 269.73439026 C108.16429608 264.41815799 109.98878598 259.08660302 111.74609375 253.7265625 C113.03320463 249.81370272 114.37038961 245.96982582 115.9453125 242.1640625 C119.31771529 233.96814278 121.88356877 225.45604559 124.64013672 217.03857422 C127.5792655 208.07809129 130.62429364 199.18815728 133.98112488 190.37486267 C135.73103501 185.76787117 137.28396444 181.16027403 138.6875 176.4375 C139.80221308 172.69497534 140.94659405 169.12433353 142.48828125 165.53515625 C144.1099476 161.74288738 145.32784516 157.94751502 146.5 154 C147.82809035 149.52733443 149.2776491 145.2680431 151.16943359 140.99316406 C153.0250821 136.540044 154.50229442 131.93782639 156.0625 127.375 C156.44809082 126.25867188 156.83368164 125.14234375 157.23095703 123.9921875 C159.1880733 118.31929577 161.12522558 112.64071712 163.02641296 106.94888306 C163.91934155 104.27932587 164.81989956 101.61237147 165.72116089 98.94561768 C166.15579812 97.65227522 166.5865902 96.35763397 167.01345825 95.06170654 C167.61161316 93.24636743 168.22347872 91.43556335 168.8359375 89.625 C169.35486572 88.06652344 169.35486572 88.06652344 169.88427734 86.4765625 C171 84 171 84 174 82 C175.86026952 81.46649928 177.73844212 80.99392215 179.625 80.5625 C183.46461718 79.65360511 187.16365073 78.65060552 190.875 77.3125 C194.35284754 76.09620359 197.28428902 75.71417608 201 76 C201 75.34 201 74.68 201 74 C200.31585242 74.00645255 199.63170485 74.0129051 198.92682552 74.01955318 C182.26745599 74.1742535 165.60831445 74.29003252 148.94839382 74.3626852 C140.89168412 74.39875501 132.83545435 74.44791591 124.77905273 74.52807617 C117.75571033 74.59792421 110.73271554 74.64302569 103.70903546 74.65861946 C99.99104048 74.66773284 96.2740398 74.68909435 92.55636406 74.7401104 C88.40228362 74.79665079 84.24992309 74.7979244 80.09545898 74.79467773 C78.86762695 74.81984467 77.63979492 74.8450116 76.37475586 74.87094116 C70.66300461 74.82260658 66.99040344 74.71918316 62.8041687 70.58554077 C61.83928459 69.41457476 60.89964214 68.22180472 60 67 C59.35248779 66.28610107 58.70497559 65.57220215 58.0378418 64.83666992 C57.53422119 64.24474854 57.03060059 63.65282715 56.51171875 63.04296875 C53.04837061 59.03150644 49.45228941 55.16370952 45.8125 51.3125 C44.48657708 49.90402425 43.16106119 48.49516522 41.8359375 47.0859375 C41.18592773 46.39467773 40.53591797 45.70341797 39.86621094 44.99121094 C36.72230215 41.63672113 33.60918243 38.25415218 30.49609375 34.87109375 C26.62249822 30.66517903 22.71980502 26.48709188 18.8125 22.3125 C14.07057355 17.24499493 9.38212402 12.13898456 4.76953125 6.953125 C3.05196635 5.00626886 3.05196635 5.00626886 1.26171875 3.359375 C0 2 0 2 0 0 Z " fill="#F8F7F8" transform="translate(591,446)"/>
<path d="M0 0 C1.29248386 3.87745157 0.17917112 6.23914059 -1.10546875 9.9375 C-1.34060684 10.63711349 -1.57574493 11.33672699 -1.81800842 12.05754089 C-2.59927692 14.37469005 -3.39335082 16.68723696 -4.1875 19 C-4.73676031 20.62124415 -5.28525226 22.24274879 -5.83300781 23.86450195 C-7.54219699 28.914193 -9.26888872 33.95778805 -11 39 C-11.27080383 39.78904724 -11.54160767 40.57809448 -11.82061768 41.39105225 C-12.61049414 43.69182401 -13.40087432 45.99242212 -14.19140625 48.29296875 C-14.44951584 49.04450226 -14.70762543 49.79603577 -14.97355652 50.57034302 C-16.18954206 54.109312 -17.4088339 57.64703603 -18.63745117 61.18164062 C-21.61062211 69.7666709 -24.4268319 78.3959202 -27.18652344 87.05200195 C-27.7386702 88.78080471 -27.7386702 88.78080471 -28.30197144 90.54453278 C-29.20197304 93.36281231 -30.10130013 96.18130515 -31 99 C-30.16919953 98.99907821 -29.33839907 98.99815641 -28.48242283 98.99720669 C61.94874157 98.89867301 152.37922852 98.83447068 242.80904007 99.40571976 C246.98715042 99.43208051 251.16526635 99.45738267 255.34338528 99.48234075 C295.56898237 99.7231227 335.78172535 100.16595217 376 101 C374.39310409 105.21432032 372.30169613 108.73923567 369.75 112.4375 C365.44574541 118.78242031 361.28831172 125.20937328 357.1875 131.6875 C352.19086142 139.57216595 347.14345459 147.42028651 342.04248047 155.23779297 C337.59064658 162.06949578 333.19852609 168.93841026 328.8125 175.8125 C324.15727922 183.10398124 319.47070057 190.36695243 314.64672852 197.54785156 C297.61785223 221.56326135 297.61785223 221.56326135 283.0655489 246.97298813 C280.18951847 252.55391114 280.18951847 252.55391114 277.05946159 253.72773361 C274.63805749 253.98663106 272.32932065 253.99040765 269.89526367 253.90820312 C268.98745148 253.90937134 268.07963928 253.91053955 267.14431763 253.91174316 C264.15063196 253.9061796 261.160956 253.84401245 258.16796875 253.78125 C256.09005408 253.76632525 254.01211123 253.75493933 251.93415833 253.74694824 C246.4704487 253.71643285 241.0084462 253.63787384 235.54541016 253.54931641 C229.96865942 253.46741269 224.39163222 253.43092702 218.81445312 253.390625 C207.87555287 253.30487998 196.9379185 253.1683792 186 253 C187.42930543 248.1165398 188.97378321 244.08046136 192 240 C194.88907461 239.36098624 196.65064424 239.22958614 199.515625 239.41503906 C200.26746567 239.43478287 201.01930634 239.45452667 201.79393005 239.47486877 C203.42529886 239.52044168 205.05629757 239.58123003 206.68661499 239.65543365 C209.27849807 239.76685004 211.866305 239.82400898 214.46020508 239.8649292 C221.83073011 239.98640368 229.19677414 240.16835886 236.56201172 240.47607422 C255.82357071 242.19780178 255.82357071 242.19780178 273.78103638 237.25924683 C278.01564916 232.94854755 280.21151761 227.9945368 282.14776611 222.33551025 C283.30821517 219.15534959 285.05184405 216.57313495 286.99609375 213.81640625 C287.85279663 212.50627563 287.85279663 212.50627563 288.72680664 211.16967773 C289.29133545 210.30930908 289.85586426 209.44894043 290.4375 208.5625 C291.71624699 206.60683697 292.99489094 204.65110657 294.2734375 202.6953125 C294.89831055 201.74043945 295.52318359 200.78556641 296.16699219 199.80175781 C304.11413587 187.6545254 311.99288753 175.46768657 319.76977539 163.21069336 C323.64167357 157.11493571 327.55629074 151.04957342 331.5 145 C338.40378332 134.37879489 345.19898845 123.68730387 352 113 C219.67 113 87.34 113 -49 113 C-46.7498985 102.87454324 -46.7498985 102.87454324 -45.64648438 99.50708008 C-45.39828949 98.7427063 -45.1500946 97.97833252 -44.89437866 97.1907959 C-44.6301712 96.39177856 -44.36596375 95.59276123 -44.09375 94.76953125 C-43.81254303 93.90791382 -43.53133606 93.04629639 -43.24160767 92.15856934 C-42.33191528 89.37515844 -41.41610938 86.59380473 -40.5 83.8125 C-39.87064396 81.8916142 -39.24157708 79.97063364 -38.61279297 78.04956055 C-33.46722445 62.3469271 -28.26139698 46.66419418 -23 31 C-33.88525193 36.31235034 -44.49780636 41.96861972 -55 48 C-58.27025362 49.87601295 -61.54106011 51.75105641 -64.8125 53.625 C-66.11924683 54.37390503 -66.11924683 54.37390503 -67.45239258 55.13793945 C-74.72749882 59.29672236 -82.04552268 63.37545527 -89.375 67.4375 C-93.91719768 69.9573776 -98.45891387 72.4781198 -103 75 C-104.12051758 75.62213379 -105.24103516 76.24426758 -106.39550781 76.88525391 C-109.60014172 78.66795483 -112.80064693 80.45784289 -116 82.25 C-116.96728027 82.78681396 -117.93456055 83.32362793 -118.93115234 83.87670898 C-119.82012207 84.37630127 -120.7090918 84.87589355 -121.625 85.390625 C-122.78902344 86.0407959 -122.78902344 86.0407959 -123.9765625 86.70410156 C-128.59134758 89.65961305 -130.14885664 93.2040161 -132.14453125 98.203125 C-132.43680099 98.91797058 -132.72907074 99.63281616 -133.03019714 100.36932373 C-133.96475587 102.66005854 -134.88871581 104.954902 -135.8125 107.25 C-136.4218416 108.74767449 -137.03186145 110.24507321 -137.64257812 111.7421875 C-140.00545563 117.54536993 -142.3508626 123.35530273 -144.65917969 129.18041992 C-147.15538733 135.47643324 -149.6821163 141.71054921 -152.625 147.8125 C-154.88680124 152.56289722 -156.99121021 157.33145971 -158.890625 162.23828125 C-161.42992962 168.55971916 -164.2478387 174.76898311 -167 181 C-170.89252812 179.44298875 -173.06142977 176.98565894 -175.8125 173.875 C-176.47487671 173.13141235 -176.47487671 173.13141235 -177.15063477 172.37280273 C-180.15594861 168.99120938 -183.12318181 165.57567484 -186.08984375 162.16015625 C-188.52422035 159.40717004 -191.01100039 156.70346743 -193.5 154 C-197.12404361 150.06368606 -200.69718043 146.09218896 -204.19921875 142.046875 C-206.38775665 139.55925274 -208.63239191 137.12646548 -210.875 134.6875 C-214.91881367 130.25450727 -218.74231408 125.6939069 -222.51171875 121.02734375 C-226.98960161 115.5793701 -231.5748039 110.19125326 -236.33397579 104.98609161 C-238 103 -238 103 -239.19079685 100.922966 C-240.89924885 98.26496468 -242.34978321 96.7558319 -245 95 C-251.1903838 93.79994379 -257.31933323 93.98826314 -263.60327148 94.09179688 C-265.51560877 94.09405468 -267.42795299 94.09278443 -269.34028625 94.08825684 C-274.52213461 94.08596384 -279.70249794 94.13295686 -284.88400149 94.1888485 C-290.30247872 94.23889978 -295.72099097 94.24356154 -301.1396637 94.25305176 C-311.39622264 94.27790486 -321.65209844 94.34353805 -331.90835673 94.42384768 C-343.58655569 94.51330417 -355.2647875 94.55726224 -366.94324386 94.59741116 C-390.96254114 94.68100489 -414.98123227 94.82169546 -439 95 C-438.57931747 95.44802979 -438.15863495 95.89605957 -437.72520447 96.35766602 C-435.78388573 98.42560154 -433.84311215 100.49404797 -431.90234375 102.5625 C-431.24085327 103.26697266 -430.57936279 103.97144531 -429.89782715 104.69726562 C-425.76013981 109.1080886 -421.64855972 113.54133865 -417.5625 118 C-413.73922372 122.16573843 -409.82418353 126.21106074 -405.79296875 130.17578125 C-403.33163217 132.68001695 -401.0689709 135.33792477 -398.78125 138 C-396.9257479 140.08337078 -394.98776899 142.04281207 -393 144 C-390.46185201 146.49939764 -388.05871697 149.03781792 -385.75 151.75 C-382.16717374 155.92721219 -378.28694872 159.77176624 -374.35058594 163.61230469 C-372.88091167 165.05682324 -371.43930192 166.52528122 -370 168 C-369.50016602 168.48049805 -369.00033203 168.96099609 -368.48535156 169.45605469 C-365.84735171 172.20328849 -364.99700823 173.56369997 -365.0234375 177.41796875 C-366.03769065 181.1382493 -367.21033418 184.72989293 -368.625 188.3125 C-368.88716309 188.99473633 -369.14932617 189.67697266 -369.41943359 190.37988281 C-370.27113304 192.5899953 -371.13401181 194.79544966 -372 197 C-373.20935339 200.08293497 -374.4179298 203.16617029 -375.625 206.25 C-375.92341797 207.01046631 -376.22183594 207.77093262 -376.52929688 208.55444336 C-378.54470005 213.7259275 -380.33989911 218.9395168 -382.04296875 224.22265625 C-383.05161446 227.14978726 -384.21712596 229.9674794 -385.4375 232.8125 C-387.35948763 237.30889308 -388.99686696 241.84977422 -390.5 246.5 C-392.32202807 252.13055803 -394.429024 257.56576648 -396.76171875 263.00390625 C-398.05696607 266.13783274 -399.19548599 269.29839128 -400.3125 272.5 C-402.28918352 278.12925089 -404.44412915 283.65962678 -406.6875 289.1875 C-413.24591025 305.40319307 -419.54434512 321.79682541 -424.76953125 338.49609375 C-425.78045742 341.37482637 -426.88626393 344.12640759 -428.08203125 346.9296875 C-432.34424238 357.05195059 -436.05614902 367.39213074 -439.875 377.6875 C-440.72184667 379.96552348 -441.56877147 382.24351791 -442.41577148 384.52148438 C-448.60243501 401.17396994 -454.72478179 417.84957905 -460.81291199 434.53829956 C-461.10410416 435.33648102 -461.39529633 436.13466248 -461.6953125 436.95703125 C-461.97953568 437.73611847 -462.26375885 438.51520569 -462.55659485 439.31790161 C-465.55017129 447.51744465 -468.58552944 455.70130825 -471.62475586 463.8840332 C-475.46710667 474.23764858 -479.24257773 484.6153007 -483 495 C-478.95376863 494.24037249 -475.39989399 492.4076824 -471.71875 490.640625 C-470.64301476 490.12986168 -470.64301476 490.12986168 -469.54554749 489.60877991 C-467.19550999 488.49235558 -464.84780557 487.37110927 -462.5 486.25 C-459.2078623 484.68444617 -455.91449261 483.12149243 -452.62109375 481.55859375 C-451.79761948 481.16741867 -450.9741452 480.77624359 -450.12571716 480.37321472 C-442.95960254 476.97219824 -435.76562754 473.63444979 -428.5625 470.3125 C-417.47953906 465.1943018 -406.47449496 459.92569995 -395.50024414 454.5793457 C-390.0433993 451.92625787 -384.59039032 449.35658741 -379 447 C-376.9460454 445.95377781 -374.91938984 444.87062543 -372.89453125 443.76953125 C-371 443 -371 443 -367 443 C-367 442.34 -367 441.68 -367 441 C-354.20540196 435.05484091 -354.20540196 435.05484091 -350.3125 433.4375 C-346.67138135 431.85739191 -343.15543418 430.09292017 -339.625 428.28125 C-337.13068049 427.06378452 -334.59919322 425.9817623 -332.04345703 424.90136719 C-329.64377273 423.84286845 -327.29079176 422.70468927 -324.93359375 421.5546875 C-324.03576172 421.11769531 -323.13792969 420.68070313 -322.21289062 420.23046875 C-320.35638942 419.32377499 -318.5022263 418.41227875 -316.65039062 417.49609375 C-312.10253944 415.29246205 -308.11398839 413.4254566 -303 413 C-303 412.34 -303 411.68 -303 411 C-300.11109425 409.65127604 -297.21288116 408.32384398 -294.3125 407 C-293.49587891 406.6184375 -292.67925781 406.236875 -291.83789062 405.84375 C-291.04189453 405.4828125 -290.24589844 405.121875 -289.42578125 404.75 C-288.33390503 404.24726562 -288.33390503 404.24726562 -287.2199707 403.734375 C-284.65209027 402.8849101 -282.68818859 402.73559258 -280 403 C-277.96484375 404.94921875 -277.96484375 404.94921875 -275.9375 407.6875 C-272.47504916 412.17543545 -268.88944248 416.37789266 -265 420.5 C-260.51893416 425.2812599 -256.3153342 430.20833827 -252.2109375 435.3203125 C-249.8906505 438.13253315 -247.46928866 440.81797263 -245 443.5 C-240.98394153 447.86769492 -237.20614546 452.36849236 -233.48046875 456.984375 C-230.55031511 460.54670352 -227.53234033 464.02467961 -224.5 467.5 C-219.99805391 472.66327447 -215.60129983 477.89119076 -211.2890625 483.21484375 C-208.67682149 486.39321891 -206.00044474 489.5106886 -203.3125 492.625 C-198.18926553 498.56465995 -193.19384352 504.60138694 -188.22314453 510.66894531 C-183.94743425 515.8773444 -179.59144393 521.00907574 -175.18969727 526.11108398 C-171.47689307 530.42182343 -167.86381168 534.80604746 -164.27734375 539.22265625 C-161.71795946 542.34396367 -159.11406209 545.4245003 -156.5 548.5 C-152.3855077 553.34179078 -148.34269431 558.23564411 -144.33203125 563.1640625 C-141.19684037 566.97670669 -138.00586241 570.74073564 -134.8046875 574.49804688 C-132.75579519 576.90655303 -130.74552334 579.32634485 -128.80078125 581.8203125 C-127.18410993 584.07657202 -127.18410993 584.07657202 -125 585 C-124.86464844 584.42636719 -124.72929688 583.85273437 -124.58984375 583.26171875 C-123.04451691 577.16369249 -121.06737235 571.31074275 -118.859375 565.4296875 C-116.24741761 558.40688537 -113.68514083 551.36871527 -111.17578125 544.30859375 C-110.85818344 543.41591293 -110.54058563 542.52323212 -110.21336365 541.60350037 C-108.91591369 537.95459026 -107.62012084 534.30509581 -106.32592773 530.6550293 C-105.36092262 527.93477301 -104.39348678 525.21539035 -103.42578125 522.49609375 C-103.14027908 521.68861191 -102.85477692 520.88113007 -102.56062317 520.04917908 C-100.51520586 514.30706343 -98.298104 508.64550711 -96 503 C-95.67 503 -95.34 503 -95 503 C-94.92517425 507.3924631 -94.87108317 511.78457672 -94.83520508 516.17749023 C-94.82022958 517.66811598 -94.79984181 519.15869851 -94.77368164 520.64916992 C-94.63154638 528.9626889 -94.75658377 536.21712065 -98 544 C-98.49474165 545.55814616 -98.97072051 547.12234982 -99.4296875 548.69140625 C-99.66494141 549.48232666 -99.90019531 550.27324707 -100.14257812 551.08813477 C-100.38427734 551.90467529 -100.62597656 552.72121582 -100.875 553.5625 C-103.91454646 563.75874534 -107.05824338 573.91873223 -110.29296875 584.0546875 C-112.66627213 591.50648662 -114.99974266 598.96819501 -117.25390625 606.45703125 C-117.45435547 607.12286728 -117.65480469 607.78870331 -117.86132812 608.47471619 C-118.27819802 609.85977585 -118.69504743 611.24484167 -119.11187744 612.62991333 C-119.32245789 613.32954193 -119.53303833 614.02917053 -119.75 614.75 C-119.96122498 615.45180389 -120.17244995 616.15360779 -120.39007568 616.87667847 C-123.77748571 628.11581692 -127.31719773 639.29883358 -130.95074463 650.46060181 C-134.13998779 660.26038617 -137.19995916 670.0819606 -140 680 C-139.67 680.33 -139.34 680.66 -139 681 C-138.54898926 680.67427002 -138.09797852 680.34854004 -137.63330078 680.01293945 C-136.26059659 679.02154198 -134.88787333 678.03017093 -133.51513672 677.03881836 C-131.89943995 675.8718529 -130.28388375 674.70469278 -128.66845703 673.53735352 C-124.56861967 670.57512797 -120.46702552 667.61544636 -116.359375 664.6640625 C-108.49642951 659.00929207 -100.69449487 653.28914862 -92.96826172 647.44897461 C-87.51381332 643.34429625 -81.94848843 639.41217546 -76.35522461 635.49975586 C-71.49856584 632.09049351 -66.73003158 628.58250913 -62 625 C-56.5732657 620.8898107 -51.07837514 616.90187679 -45.5 613 C-39.17216105 608.57333089 -32.96478535 604.01319086 -26.80419922 599.35717773 C-20.90772464 594.90828403 -14.90808628 590.61755995 -8.88525391 586.34228516 C1.94327701 578.63246089 12.71464334 570.83476452 23.36132812 562.87548828 C26.64145052 560.42907506 29.88604613 558.07115491 33.359375 555.90234375 C41.41672084 550.83868027 44.26849379 544.60182835 48.00097656 536.17626953 C49.67360694 532.53261674 51.59203587 529.02451367 53.5 525.5 C57.45803251 518.16599859 61.16549814 510.70932422 64.87915039 503.24975586 C66.8004003 499.39344614 68.72876156 495.54069419 70.65625 491.6875 C71.45966809 490.0807455 72.26305326 488.47397455 73.06640625 486.8671875 C75.5 482 75.5 482 77.93359375 477.1328125 C78.53119507 475.93748901 78.53119507 475.93748901 79.14086914 474.71801758 C79.94448258 473.11095381 80.74835739 471.50402072 81.55249023 469.8972168 C83.33529322 466.3341718 85.1157574 462.77010331 86.8828125 459.19921875 C90.2593375 452.38804259 93.71117651 445.62157061 97.23226929 438.88389587 C108.21686333 417.84540766 118.79343329 396.60049136 129.40625 375.37280273 C132.30655892 369.57208259 135.21240327 363.77415425 138.11959648 357.97688198 C140.39080533 353.44565589 142.65831658 348.91258675 144.92483902 344.37901497 C145.99427516 342.24130786 147.06498027 340.10423502 148.13708115 337.96786308 C154.41945839 325.44479419 160.45091805 312.86628269 166 300 C166.66 300 167.32 300 168 300 C170.32747878 321.93968461 165.83554677 335.84300637 155.68701172 354.79931641 C153.61529835 358.72987534 151.80410285 362.72805624 150.0625 366.8125 C149.45001996 368.2079563 148.83532001 369.60243974 148.21875 370.99609375 C147.88101563 371.76034668 147.54328125 372.52459961 147.1953125 373.31201172 C137.47832698 395.16332107 127.35520095 416.81934177 117.10974121 438.426651 C113.481744 446.08344577 109.89264196 453.75823587 106.3125 461.4375 C105.48480103 463.21193481 105.48480103 463.21193481 104.64038086 465.0222168 C101.07530382 472.67308785 97.5321819 480.33389221 94 488 C94.95140869 487.51909912 95.90281738 487.03819824 96.88305664 486.54272461 C105.83803683 482.02475319 114.8465968 477.61925723 123.875 473.25 C125.01493408 472.69546143 126.15486816 472.14092285 127.3293457 471.56958008 C133.10303382 468.78392176 138.88075417 466.1810929 144.85546875 463.85839844 C147.67687331 462.72906574 150.364601 461.39638092 153.0625 460 C157.10085343 457.94504041 161.1458785 456.00643806 165.3046875 454.2109375 C167.62292216 453.16941178 169.90874609 452.08510923 172.1953125 450.9765625 C172.95303955 450.61159668 173.7107666 450.24663086 174.49145508 449.87060547 C176.0177668 449.1336989 177.54115317 448.3906967 179.0612793 447.64111328 C179.76937744 447.30063965 180.47747559 446.96016602 181.20703125 446.609375 C181.8410083 446.29967773 182.47498535 445.98998047 183.12817383 445.67089844 C185 445 185 445 189 445 C189 444.34 189 443.68 189 443 C189.85722656 442.67386719 190.71445312 442.34773438 191.59765625 442.01171875 C198.94349407 439.22482005 198.94349407 439.22482005 206.1875 436.1875 C209 435 209 435 211 435 C211 434.34 211 433.68 211 433 C217.5 430 217.5 430 222 430 C222 429.34 222 428.68 222 428 C223.7902061 427.32942113 225.58221489 426.6636531 227.375 426 C228.37273438 425.62875 229.37046875 425.2575 230.3984375 424.875 C233 424 233 424 235 424 C235 423.34 235 422.68 235 422 C235.69222656 421.69408936 236.38445313 421.38817871 237.09765625 421.07299805 C240.39917106 419.61281722 243.69965863 418.15033112 247 416.6875 C247.60125702 416.42143951 248.20251404 416.15537903 248.82199097 415.8812561 C255.59657281 412.88221706 262.35280751 409.85270899 269.06640625 406.71875 C270.16146484 406.20868408 271.25652344 405.69861816 272.38476562 405.1730957 C274.47907824 404.19400134 276.5703205 403.20830838 278.65820312 402.21557617 C280.06682617 401.55779175 280.06682617 401.55779175 281.50390625 400.88671875 C282.32705322 400.49701904 283.1502002 400.10731934 283.99829102 399.70581055 C284.65885498 399.47289307 285.31941895 399.23997559 286 399 C286.66 399.33 287.32 399.66 288 400 C287.20903931 400.51216064 287.20903931 400.51216064 286.40209961 401.03466797 C283.91323834 402.64709355 281.4253725 404.26104926 278.9375 405.875 C278.10927734 406.41125 277.28105469 406.9475 276.42773438 407.5 C262.41737765 416.59351455 248.58679569 425.95806646 234.75 435.3125 C233.52561218 436.13995728 233.52561218 436.13995728 232.27648926 436.98413086 C222.70877025 443.45064089 213.14519061 449.92260351 203.625 456.45898438 C198.4186739 460.03354835 193.1961126 463.58361022 187.96948242 467.12841797 C176.6690874 474.79455385 165.43026965 482.54323793 154.23046875 490.35546875 C145.72403754 496.28829327 137.17159031 502.15378515 128.60546875 508 C127.04941485 509.06240581 125.49342677 510.12490802 123.9375 511.1875 C122.75401978 511.99550049 122.75401978 511.99550049 121.54663086 512.81982422 C116.23964108 516.44966745 110.9600563 520.11694713 105.69042969 523.80078125 C96.76100201 530.0425936 87.77445172 536.17705607 78.6875 542.1875 C69.31847272 548.39015698 60.1724659 554.83657023 51.10595703 561.47070312 C47.59743696 564.01850857 44.04840162 566.50819541 40.5 569 C32.36992988 574.71833752 24.31037824 580.53112007 16.26171875 586.36328125 C14.02060267 587.98509064 11.77648685 589.60265132 9.53125 591.21875 C1.02178195 597.3461253 -7.44628838 603.52557152 -15.87890625 609.75830078 C-22.12404275 614.36896796 -28.41283817 618.91659092 -34.71386719 623.45043945 C-38.92651337 626.48673639 -43.10563613 629.55864251 -47.25 632.6875 C-52.49539542 636.64669572 -57.8288913 640.47260831 -63.18359375 644.28125 C-73.69232499 651.75803498 -84.1262755 659.33717912 -94.5 667 C-106.44642153 675.82453437 -118.48706956 684.51575627 -130.59619141 693.11547852 C-134.83169716 696.13554126 -139.01127907 699.22713322 -143.18652344 702.32983398 C-150.63128446 707.85962573 -158.06480799 713.1902256 -166 718 C-164.66725805 710.40381246 -162.64484326 703.15179685 -160.33203125 695.80078125 C-159.9741301 694.64869675 -159.61622894 693.49661224 -159.2474823 692.30961609 C-158.10720812 688.64242091 -156.96009782 684.97740916 -155.8125 681.3125 C-154.68857263 677.70734467 -153.56607583 674.10174609 -152.44369507 670.49610901 C-151.70316767 668.1177591 -150.96197806 665.73961528 -150.22012329 663.36167908 C-147.56335426 654.8389763 -144.95313136 646.30291215 -142.36457825 637.75927734 C-140.78806138 632.5635513 -139.1822014 627.37959515 -137.53125 622.20703125 C-137.18835938 621.12615234 -136.84546875 620.04527344 -136.4921875 618.93164062 C-135.80641476 616.77577631 -135.11322494 614.62226235 -134.4140625 612.47070312 C-133.91519531 610.88612305 -133.91519531 610.88612305 -133.40625 609.26953125 C-132.96249023 607.88664917 -132.96249023 607.88664917 -132.50976562 606.47583008 C-131.96788639 603.84403061 -132.05460305 602.48887481 -133 600 C-134.63121088 597.63331057 -134.63121088 597.63331057 -136.75 595.1875 C-137.55824219 594.22328125 -138.36648438 593.2590625 -139.19921875 592.265625 C-142.8603211 587.9795853 -146.56352643 583.72972502 -150.26831055 579.48144531 C-153.93295085 575.26847576 -157.45947202 570.97341317 -160.9140625 566.5859375 C-164.0225708 562.7323186 -167.2664994 558.99826264 -170.50146484 555.25073242 C-173.62198486 551.62885871 -176.68014893 547.96712798 -179.6875 544.25 C-182.53458501 540.7411601 -185.45812552 537.34133363 -188.5 534 C-192.34191939 529.77986056 -195.96115221 525.41972816 -199.55078125 520.984375 C-202.31810598 517.61238761 -205.15143465 514.3033143 -208 511 C-211.53614909 506.89773502 -215.02863508 502.77197907 -218.4375 498.5625 C-222.05426855 494.10401076 -225.78848178 489.76242267 -229.5625 485.4375 C-233.12607471 481.353146 -236.64673894 477.26069746 -240 473 C-247.01854208 464.08898479 -254.65483701 455.66607894 -262.13671875 447.14453125 C-264.20518635 444.76384212 -266.25351183 442.3666219 -268.30029297 439.96728516 C-269.86060621 438.14183962 -271.42779979 436.32249657 -272.99609375 434.50390625 C-274.89163314 432.30440509 -276.75754959 430.08584579 -278.59765625 427.83984375 C-279.36980469 426.92332031 -280.14195312 426.00679687 -280.9375 425.0625 C-281.60652344 424.24910156 -282.27554688 423.43570312 -282.96484375 422.59765625 C-284.91339834 420.70314525 -284.91339834 420.70314525 -287.6171875 421.1640625 C-290.04031216 421.9242159 -290.04031216 421.9242159 -292.1875 423.3125 C-295.4751498 425.28508988 -298.8395821 426.58084144 -302.40234375 427.9765625 C-308.6500044 430.43804685 -314.54875762 433.26601853 -320.4375 436.5 C-324.98971696 438.98398428 -329.48020204 441.08951771 -334.3203125 442.9296875 C-338.16406333 444.46494658 -341.88501519 446.24359144 -345.6262207 448.01171875 C-350.459019 450.29130685 -355.31785715 452.50735569 -360.18896484 454.70385742 C-370.48358501 459.34660571 -370.48358501 459.34660571 -380.625 464.3125 C-388.44485413 468.28713035 -396.41293154 471.93256259 -404.37451172 475.61303711 C-413.85124942 479.99532243 -423.30543232 484.4238334 -432.75 488.875 C-434.1863446 489.55162918 -435.62270532 490.22822414 -437.05908203 490.90478516 C-439.2211385 491.92317894 -441.38318967 492.94158393 -443.54519653 493.96008301 C-464.31621732 503.74442205 -485.10275054 513.48729759 -506 523 C-507 521 -507 521 -506.49365234 518.94165039 C-506.19410645 518.08563232 -505.89456055 517.22961426 -505.5859375 516.34765625 C-505.2444165 515.36337646 -504.90289551 514.37909668 -504.55102539 513.36499023 C-504.16293701 512.27516846 -503.77484863 511.18534668 -503.375 510.0625 C-502.96822021 508.90500244 -502.56144043 507.74750488 -502.14233398 506.55493164 C-498.0807664 495.07553557 -493.82953954 483.66653163 -489.56936646 472.25970459 C-485.13113017 460.37532412 -480.74704211 448.4713751 -476.375 436.5625 C-475.99631775 435.5313205 -475.6176355 434.50014099 -475.22747803 433.43771362 C-468.97003618 416.39594174 -462.73978394 399.34428994 -456.51611328 382.29016113 C-451.8460724 369.49504393 -447.16080452 356.70565608 -442.44921875 343.92578125 C-442.21607405 343.29333874 -441.98292934 342.66089622 -441.74271965 342.00928879 C-439.26138773 335.27877045 -436.7778361 328.54907577 -434.29174805 321.8203125 C-433.46256815 319.57427771 -432.63354531 317.32818493 -431.8046875 315.08203125 C-431.40419693 313.99733551 -431.00370636 312.91263977 -430.59107971 311.79507446 C-428.54283155 306.23493798 -426.51705718 300.6677266 -424.52441406 295.08740234 C-424.12247833 293.96258957 -423.7205426 292.83777679 -423.306427 291.67887878 C-422.5506143 289.55871379 -421.79783068 287.43746528 -421.04879761 285.31489563 C-419.18306494 280.07750219 -417.1627123 274.98401024 -414.85690308 269.92512512 C-413.82477617 267.60634078 -412.98851475 265.26157506 -412.21875 262.84375 C-411.93386719 261.96589844 -411.64898437 261.08804687 -411.35546875 260.18359375 C-411.07316406 259.29800781 -410.79085937 258.41242188 -410.5 257.5 C-408.59610531 251.52750845 -406.53423011 245.78950576 -403.91943359 240.09033203 C-402.57154953 237.02591796 -401.57010673 233.87767355 -400.5625 230.6875 C-399.0501155 225.98950469 -397.3950514 221.40859297 -395.4375 216.875 C-393.23422463 211.7546155 -391.61298682 206.58066665 -390.0390625 201.23828125 C-388.98704606 197.95962852 -387.73528184 194.84955867 -386.375 191.6875 C-385.96636719 190.70652344 -385.55773437 189.72554687 -385.13671875 188.71484375 C-384.43912536 187.0487702 -383.71773543 185.39212686 -382.95703125 183.75390625 C-381.98102894 181.52313042 -381.98102894 181.52313042 -382 178 C-384.24849454 174.86199114 -387.10676949 172.52970929 -390 170 C-391.107403 168.77127313 -392.19157529 167.5211602 -393.25 166.25 C-396.33561568 162.65483311 -399.6319696 159.32661595 -403 156 C-406.92065661 152.12743486 -410.654042 148.19207745 -414.2265625 143.9921875 C-416.39113418 141.56062019 -418.68429453 139.28788919 -421 137 C-423.84863007 134.18543426 -426.60529312 131.37264748 -429.1875 128.3125 C-433.31205427 123.47919177 -437.87344657 119.07544139 -442.40698242 114.63012695 C-445.53832061 111.54120887 -448.55118195 108.41536942 -451.41796875 105.078125 C-456.0122819 99.74763495 -461.08062827 94.90566567 -466.12304688 90.00390625 C-466.85201172 89.28589844 -467.58097656 88.56789063 -468.33203125 87.828125 C-468.98921143 87.1877832 -469.6463916 86.54744141 -470.32348633 85.88769531 C-471.9978919 84.00237365 -472.92409035 82.26188782 -474 80 C-444.10547667 79.74887623 -414.2109889 79.55429897 -384.31563751 79.43828138 C-380.7835027 79.42452417 -377.25136997 79.41028657 -373.71923828 79.39575195 C-373.0160763 79.39286654 -372.31291432 79.38998112 -371.5884444 79.38700827 C-360.21378772 79.33918781 -348.83974471 79.25248328 -337.46545167 79.15131924 C-325.78788045 79.04832672 -314.1106664 78.98815042 -302.43266237 78.96502656 C-295.8756757 78.95069276 -289.32007918 78.91704004 -282.76353836 78.83696938 C-276.58911488 78.76217777 -270.41665092 78.73929724 -264.24181747 78.75581551 C-261.97865388 78.7527948 -259.71542327 78.73098484 -257.45265198 78.68873978 C-239.48805919 78.36986263 -239.48805919 78.36986263 -234.53403854 82.339468 C-231.97751131 85.10325293 -230.0018175 87.82034781 -228 91 C-226.51963681 92.84922576 -225.02190778 94.68481191 -223.5 96.5 C-222.7678125 97.4075 -222.035625 98.315 -221.28125 99.25 C-218.13334326 103.04473689 -214.78867286 106.64369211 -211.44921875 110.26953125 C-209.13939418 112.84459883 -206.96756987 115.48254363 -204.8125 118.1875 C-200.30972335 123.77383253 -195.43633217 128.9706212 -190.49145508 134.16674805 C-186.74361144 138.10920749 -183.1052711 142.11879362 -179.55883789 146.24389648 C-178.1194112 147.86547772 -176.62634062 149.37459897 -175.0625 150.875 C-173 153 -173 153 -173 155 C-172.34 155 -171.68 155 -171 155 C-171 154.01 -171 153.02 -171 152 C-170.34 152 -169.68 152 -169 152 C-168.80470703 150.89785156 -168.80470703 150.89785156 -168.60546875 149.7734375 C-168.04713742 147.2159198 -167.31481797 145.03563816 -166.3125 142.625 C-164.80486795 138.96205283 -163.32673757 135.29060467 -161.87963867 131.60327148 C-159.74059645 126.17296923 -157.50100212 120.83948353 -155 115.5625 C-152.40306704 110.05673091 -150.26624353 104.4665447 -148.18847656 98.75268555 C-146.45889864 94.05803529 -144.46381241 89.61650692 -142.078125 85.2109375 C-140.85121842 82.96617263 -140.85121842 82.96617263 -140.53515625 80.109375 C-138.00118538 74.97695564 -133.1650155 73.36394924 -128.1875 70.875 C-125.9754151 69.72486038 -123.76449589 68.57247628 -121.5546875 67.41796875 C-120.44448242 66.84353027 -119.33427734 66.2690918 -118.19042969 65.67724609 C-113.66220422 63.29670515 -109.2358432 60.75621766 -104.8125 58.1875 C-96.47237607 53.37647884 -88.06231815 48.69997753 -79.625 44.0625 C-69.70491298 38.60913621 -59.81948159 33.10092574 -49.97363281 27.51416016 C-43.58285796 23.88895071 -37.1685788 20.30936394 -30.73730469 16.7565918 C-23.7167172 12.86695729 -16.7589983 8.86824839 -9.81396484 4.84545898 C-8.96914551 4.35891846 -8.12432617 3.87237793 -7.25390625 3.37109375 C-6.12964233 2.7203186 -6.12964233 2.7203186 -4.98266602 2.05639648 C-3 1 -3 1 0 0 Z " fill="#0648F2" transform="translate(713,307)"/>
<path d="M0 0 C-1.53149497 8.49283577 -4.75233653 16.56530756 -8.0078125 24.52734375 C-9.01729071 27.04309063 -9.95536749 29.57510985 -10.875 32.125 C-18.19592863 52.41607779 -18.19592863 52.41607779 -22.00390625 60.6640625 C-23.81524416 64.91182749 -25.25466915 69.29990952 -26.78125 73.65625 C-27.75953384 76.3402595 -28.80193856 78.9106414 -30 81.5 C-32.26487905 86.40419375 -33.98847009 91.48112585 -35.77734375 96.57421875 C-37.39373831 101.10322204 -39.18277589 105.5489045 -41 110 C-41.66708569 111.6873344 -42.33374862 113.374836 -43 115.0625 C-44.21208149 118.1067977 -45.4926884 121.09224368 -46.875 124.0625 C-48.86121898 128.44938522 -50.42546496 132.95395926 -52 137.5 C-54.5696302 144.91765513 -57.48793131 151.97586262 -61 159 C-65.62 159 -70.24 159 -75 159 C-73.21992379 153.48176374 -71.28070721 148.09312763 -69.09765625 142.72265625 C-66.9957219 137.50896145 -65.00976578 132.24975182 -63 127 C-54.97895108 106.04804798 -54.97895108 106.04804798 -51.4375 98.5 C-49.46524868 94.22478449 -48.01765102 90.00244429 -46.74609375 85.4765625 C-45.11905706 80.0758229 -42.84160237 74.90275318 -40.5625 69.75 C-38.53689034 65.09329953 -36.94489959 60.26963378 -35.25390625 55.484375 C-33.93436388 51.81760928 -32.51672643 48.20602104 -31.046875 44.59765625 C-28.962459 39.42550462 -26.99190068 34.20833047 -25 29 C-28.3582842 30.29568372 -31.55519335 31.73415258 -34.74609375 33.3984375 C-35.65391602 33.8713623 -36.56173828 34.34428711 -37.49707031 34.83154297 C-38.95258301 35.5955542 -38.95258301 35.5955542 -40.4375 36.375 C-41.96842285 37.17574951 -41.96842285 37.17574951 -43.53027344 37.99267578 C-51.20813348 42.02325655 -58.82197601 46.16280603 -66.41870117 50.34375 C-75.07773375 55.08834076 -83.84574295 59.61682041 -92.63964844 64.10498047 C-98.50534074 67.11535455 -104.21183814 70.26603902 -109.83691406 73.70458984 C-112.56959843 75.34111617 -115.37814635 76.74921671 -118.25 78.125 C-125.25652649 81.55084848 -132.08311451 85.28127188 -138.91894531 89.03369141 C-146.58622502 93.23895303 -154.28708637 97.37926756 -162 101.5 C-178.73652745 110.44760943 -195.44828002 119.4513239 -211.984375 128.765625 C-214.51133991 130.18659195 -217.05402098 131.55038796 -219.640625 132.859375 C-226.83700749 136.64877448 -229.48683671 139.37906502 -232 147 C-232.93967036 149.02957871 -233.89973946 151.04978119 -234.875 153.0625 C-237.47213022 158.6482876 -239.63811635 164.30874046 -241.73632812 170.09204102 C-244.03241917 176.31314522 -246.87442732 182.14786392 -250 188 C-254.018894 185.75089418 -257.46697852 183.06377239 -260.9375 180.0625 C-261.49671143 179.58377441 -262.05592285 179.10504883 -262.63208008 178.61181641 C-263.81787144 177.59608231 -265.00233308 176.57879409 -266.18554688 175.56005859 C-267.98875857 174.00966533 -269.79809796 172.4667404 -271.609375 170.92578125 C-276.86172956 166.45112971 -282.08321068 161.95643411 -287.1875 157.3125 C-291.47578428 153.41341644 -295.92657452 149.75428325 -300.45703125 146.140625 C-303 144 -303 144 -304.89766979 141.40379047 C-309.69048602 137.6901542 -314.2779106 138.32539116 -320.18025208 138.39872742 C-321.43000767 138.39445529 -322.67976326 138.39018317 -323.96739024 138.38578159 C-327.43386381 138.37460235 -330.89956484 138.39459852 -334.36593997 138.41967189 C-338.10480964 138.44125994 -341.84363559 138.43395765 -345.58255005 138.43016052 C-352.05960733 138.42753847 -358.53641281 138.44322871 -365.01340675 138.47134972 C-374.37801357 138.51198134 -383.7424986 138.52500657 -393.10718402 138.53128967 C-408.30061032 138.5422334 -423.49390242 138.5755097 -438.68725586 138.62280273 C-453.44636361 138.66869631 -468.20543491 138.7040892 -482.96459961 138.7253418 C-484.32917966 138.72731222 -484.32917966 138.72731222 -485.72132698 138.72932246 C-490.28511532 138.73584763 -494.8489039 138.74216618 -499.41269267 138.74838197 C-537.27522321 138.80021741 -575.13760115 138.88828481 -613 139 C-612.52167725 139.47308594 -612.04335449 139.94617188 -611.55053711 140.43359375 C-609.3434466 142.61964406 -607.14046367 144.80979129 -604.9375 147 C-604.18533203 147.74378906 -603.43316406 148.48757813 -602.65820312 149.25390625 C-598.4452628 153.44860874 -594.39614333 157.71608448 -590.53747559 162.23986816 C-588.00454729 165.13961355 -585.25439779 167.81261918 -582.5 170.5 C-579.09745862 173.81975448 -575.81437426 177.17089665 -572.71875 180.78125 C-568.40152664 185.77737227 -563.70153214 190.36863998 -559 195 C-553.71922004 200.20196234 -548.56390899 205.41104701 -543.73828125 211.0390625 C-540.49822325 214.69413917 -536.98340125 218.07891362 -533.5 221.5 C-529.38726909 225.53915791 -525.31907455 229.56137424 -521.5625 233.9375 C-517.45694846 238.70932391 -512.9840791 243.08675943 -508.5 247.5 C-503.27621787 252.64125793 -498.17170166 257.78573259 -493.44750977 263.39477539 C-491.92879353 265.18036053 -491.92879353 265.18036053 -489.4375 266.9375 C-488 269 -488 269 -488.1676178 270.78948975 C-489.62711632 276.95055137 -491.55610002 282.86751489 -493.68359375 288.828125 C-494.05062912 289.86933502 -494.41766449 290.91054504 -494.79582214 291.98330688 C-496.0045195 295.40740007 -497.22087163 298.82871759 -498.4375 302.25 C-499.29314007 304.66801332 -500.14844037 307.08614689 -501.00341797 309.50439453 C-507.61437378 328.18193585 -514.29700018 346.83395361 -520.99829102 365.47924805 C-526.33313523 380.32541715 -531.61924714 395.18816067 -536.875 410.0625 C-541.68856149 423.68150384 -546.5221109 437.29238456 -551.4375 450.875 C-551.81628799 451.92182953 -551.81628799 451.92182953 -552.20272827 452.98980713 C-553.25256848 455.89054867 -554.30283715 458.79113476 -555.35346985 461.69158936 C-568.88874879 498.88842078 -568.88874879 498.88842078 -581.96264648 536.24853516 C-586.47994067 549.46395328 -591.1217636 562.63561864 -595.75 575.8125 C-596.62544464 578.30613909 -597.50085167 580.79979139 -598.3762207 583.29345703 C-602.00885553 593.64057639 -605.64314899 603.98710807 -609.28268433 614.33180237 C-610.57920912 618.01821788 -611.87399768 621.70524147 -613.16833496 625.39242554 C-613.75594411 627.06494568 -614.34437957 628.73717578 -614.93371582 630.40908813 C-617.80431638 638.55311989 -620.65610203 646.6844689 -623 655 C-604.75832241 647.13998304 -586.75802407 638.75315619 -568.75 630.375 C-557.53922988 625.1600853 -546.28979222 620.04115749 -535 615 C-521.59395459 609.01254402 -508.24465248 602.90573731 -494.90692139 596.76800537 C-482.14423584 590.89535889 -469.36410298 585.06244341 -456.57080078 579.25683594 C-447.46294282 575.12316905 -438.36719822 570.96384425 -429.27832031 566.78857422 C-423.01114943 563.91278115 -416.72941011 561.07121713 -410.4375 558.25 C-396.95674008 552.34212464 -396.95674008 552.34212464 -383.78125 545.80859375 C-382 545 -382 545 -379 545 C-378.30093058 546.59915881 -377.61610532 548.20455045 -376.9375 549.8125 C-376.55464844 550.70582031 -376.17179687 551.59914063 -375.77734375 552.51953125 C-375 555 -375 555 -376 558 C-378.45253185 559.35906211 -380.84354296 560.53252215 -383.3984375 561.66796875 C-384.16683456 562.01945984 -384.93523163 562.37095093 -385.72691345 562.73309326 C-388.2719027 563.89445406 -390.82333477 565.04089085 -393.375 566.1875 C-395.16084967 566.99909351 -396.94624499 567.81168746 -398.73120117 568.62524414 C-402.39020501 570.29126075 -406.05168217 571.95164779 -409.71533203 573.60742188 C-414.45139489 575.74907256 -419.17901406 577.90855827 -423.90234375 580.078125 C-435.94559968 585.60716976 -448.00304424 591.10410682 -460.08203125 596.5546875 C-460.94228912 596.94290176 -461.802547 597.33111603 -462.68887329 597.73109436 C-463.55628143 598.12252121 -464.42368958 598.51394806 -465.31738281 598.91723633 C-467.08659908 599.71563421 -468.85580477 600.51405552 -470.625 601.3125 C-471.50200562 601.7082724 -472.37901123 602.1040448 -473.28259277 602.5118103 C-487.44260671 608.90524654 -501.55354133 615.39958624 -515.64193726 621.94915771 C-527.21738055 627.33032068 -538.81060195 632.66839683 -550.4375 637.9375 C-562.27355914 643.30148625 -574.08480385 648.71605592 -585.87890625 654.171875 C-592.88373518 657.41153894 -599.90012326 660.62579023 -606.91918945 663.83447266 C-612.33460257 666.31217142 -617.74183524 668.80660848 -623.140625 671.3203125 C-624.3265625 671.87138672 -625.5125 672.42246094 -626.734375 672.99023438 C-629.03261592 674.0589164 -631.32955007 675.13041436 -633.625 676.20507812 C-634.66140625 676.68654297 -635.6978125 677.16800781 -636.765625 677.6640625 C-638.13895996 678.30529053 -638.13895996 678.30529053 -639.54003906 678.95947266 C-641.69803173 679.87227186 -643.71341479 680.51611959 -646 681 C-644.27086099 672.46237613 -641.43437226 664.49360146 -638.40527344 656.34985352 C-634.87926441 646.81258837 -631.67879254 637.17545594 -628.50170898 627.51806641 C-626.12129351 620.29723161 -623.63802562 613.13058623 -621 606 C-618.05319335 597.84844393 -615.18140551 589.67174126 -612.3359375 581.484375 C-611.98709503 580.48112183 -611.63825256 579.47786865 -611.27883911 578.44421387 C-608.84260428 571.43409267 -606.41540324 564.4208805 -603.9921875 557.40625 C-596.48512805 535.68362489 -588.89419357 513.99665353 -581.09599304 492.3768158 C-580.81681534 491.60277908 -580.53763763 490.82874237 -580.25 490.03125 C-579.8367321 488.88560326 -579.8367321 488.88560326 -579.41511536 487.71681213 C-576.63820195 480.01079876 -573.90805649 472.28855758 -571.1875 464.5625 C-570.70354745 463.18887798 -570.2195792 461.8152615 -569.7355957 460.44165039 C-568.98016858 458.29739704 -568.22479801 456.15312383 -567.46955872 454.00880432 C-563.94525101 444.00332049 -560.41285458 434.00070152 -556.875 424 C-556.51806061 422.99088562 -556.16112122 421.98177124 -555.79336548 420.94207764 C-550.21170134 405.16951638 -544.55830243 389.42368368 -538.875 373.6875 C-532.54738522 356.16679606 -526.31539161 338.61604686 -520.22827148 321.01025391 C-517.40174999 312.84126714 -514.5411019 304.69019758 -511.5546875 296.578125 C-511.0205426 295.11685711 -510.48660102 293.65551487 -509.95288086 292.1940918 C-508.97505873 289.51730129 -507.97877125 286.84847684 -506.97094727 284.18286133 C-506.54612061 283.02036865 -506.12129395 281.85787598 -505.68359375 280.66015625 C-505.30775146 279.65605713 -504.93190918 278.65195801 -504.54467773 277.61743164 C-503.77496866 275.03790531 -503.77496866 275.03790531 -504.76586914 272.77905273 C-506.12372549 270.82164438 -507.69086744 269.23052736 -509.40893555 267.58691406 C-511.37171516 265.62925449 -513.18471545 263.56250561 -515.01953125 261.484375 C-520.02085579 255.9050994 -525.28994806 250.63317799 -530.625 245.375 C-536.04396668 240.03344713 -541.3549097 234.6961135 -546.30615234 228.91650391 C-549.37140891 225.44831941 -552.69699397 222.23973005 -556 219 C-559.9166825 215.15834973 -563.77337548 211.32519971 -567.34375 207.15625 C-571.78656374 201.99815333 -576.65486412 197.27660496 -581.5 192.5 C-591.66218089 182.48155575 -591.66218089 182.48155575 -595.375 178.125 C-600.40036171 172.25713373 -606.00742793 166.92533568 -611.5 161.5 C-624.02509378 149.12823002 -624.02509378 149.12823002 -629.38134766 142.84130859 C-632.39408578 139.41414858 -635.68061553 136.25546132 -638.9375 133.0625 C-640.28218544 131.74316207 -641.62476354 130.42167156 -642.96484375 129.09765625 C-643.5487085 128.52539307 -644.13257324 127.95312988 -644.73413086 127.36352539 C-646 126 -646 126 -646 125 C-602.52531206 124.72518404 -559.05071626 124.51380867 -515.57533057 124.38721605 C-510.43978602 124.37220801 -505.30424318 124.3566761 -500.16870117 124.34082031 C-498.63514493 124.33609872 -498.63514493 124.33609872 -497.07060774 124.33128175 C-480.52804928 124.27910111 -463.9859925 124.18450635 -447.4437314 124.07416645 C-430.4630036 123.96184865 -413.48253807 123.89527387 -396.50145406 123.87093806 C-386.0274104 123.85449252 -375.55478484 123.80260275 -365.08117785 123.7050024 C-357.89372176 123.6414467 -350.70699604 123.62242599 -343.51927952 123.63798347 C-339.37502695 123.6456519 -335.2332473 123.63411385 -331.08943748 123.5695343 C-303.6285094 123.16241049 -303.6285094 123.16241049 -296.3964712 129.1684711 C-293.98699428 131.61166109 -292.03606705 134.23590234 -290 137 C-288.21162165 138.55332353 -286.38345369 140.06343698 -284.5 141.5 C-280.27930455 144.88887956 -276.27204111 148.4394539 -272.3125 152.125 C-271.48697632 152.89336182 -271.48697632 152.89336182 -270.64477539 153.67724609 C-269.58305845 154.66622079 -268.5214495 155.65531143 -267.45996094 156.64453125 C-265.47031086 158.49177828 -263.46335937 160.31754183 -261.4375 162.125 C-260.85871094 162.64320313 -260.27992188 163.16140625 -259.68359375 163.6953125 C-257.88222846 165.09126612 -256.06666404 166.05032943 -254 167 C-253.9175 166.175 -253.835 165.35 -253.75 164.5 C-252.97659689 160.89078547 -251.73691942 158.28742756 -250.03515625 155.0546875 C-248.75877415 152.52118944 -247.81032665 149.93287018 -246.84375 147.26953125 C-245.80271872 144.4693499 -244.69217164 141.70312905 -243.5625 138.9375 C-243.17191406 137.97714844 -242.78132813 137.01679688 -242.37890625 136.02734375 C-241.92386719 135.02832031 -241.46882813 134.02929688 -241 133 C-240.52949219 131.85917969 -240.05898438 130.71835937 -239.57421875 129.54296875 C-236.43776945 124.21531145 -230.58103242 122.04977281 -225.25 119.375 C-223.4833255 118.45726775 -221.71666315 117.53951031 -219.95101929 116.61979675 C-218.14306462 115.68080325 -216.33114639 114.74982966 -214.51855469 113.81982422 C-209.2625492 111.10137675 -204.06956618 108.27105652 -198.875 105.4375 C-196.88829359 104.36017395 -194.90131437 103.28335082 -192.9140625 102.20703125 C-188.99165746 100.08040275 -185.0699166 97.95255407 -181.1484375 95.82421875 C-167.56761104 88.45637792 -153.9585058 81.14231228 -140.33447266 73.85473633 C-136.2631711 71.67674013 -132.19364819 69.49545051 -128.125 67.3125 C-118.3916345 62.09132279 -108.65671277 56.87369794 -98.8984375 51.69921875 C-98.21660904 51.33765686 -97.53478058 50.97609497 -96.83229065 50.60357666 C-94.0758809 49.14204962 -91.31943336 47.68059397 -88.56283569 46.21942139 C-80.19870307 41.7843444 -71.86018976 37.30860734 -63.5625 32.75 C-54.89758628 27.98972619 -46.14457597 23.41535457 -37.36083984 18.87866211 C-27.51478296 13.78011365 -17.78285308 8.48193832 -8.0769043 3.12231445 C-2.29889058 0 -2.29889058 0 0 0 Z " fill="#F6F6F6" transform="translate(786,223)"/>
<path d="M0 0 C4.99526412 1.46810905 7.71427872 4.39179024 11.1875 8.0625 C14.72276448 12.00769222 14.72276448 12.00769222 19 15 C19 15.66 19 16.32 19 17 C19.57234375 17.24363281 20.1446875 17.48726562 20.734375 17.73828125 C23.40433538 19.22517298 25.13829007 20.98083908 27.25 23.1875 C30.00575276 26.00588351 32.76158692 28.74195824 35.75 31.3125 C45.29879209 39.52933877 54.38646827 48.2878287 63.55151367 56.92651367 C74.45241033 67.20093608 85.40935978 77.41456998 96.43261719 87.55761719 C97.48836976 88.52917267 98.54370008 89.50118719 99.59863281 90.47363281 C105.66288021 96.06312567 111.75191521 101.61562105 118 107 C122.18518022 105.41663334 126.14330118 103.46623026 130.125 101.4375 C136.1827094 98.37445481 142.28801572 95.43636066 148.4375 92.5625 C155.21096273 89.38837632 161.83439177 86.01253879 168.41650391 82.4609375 C176.75538938 77.99792698 185.32313641 74.00927856 193.88793945 70.00219727 C195.93973143 69.02859814 197.97249272 68.02307518 200 67 C201.15313521 70.45940562 200.83803157 71.19555443 199.67089844 74.5324707 C199.19106506 75.92556458 199.19106506 75.92556458 198.70153809 77.34680176 C198.34112427 78.36286499 197.98071045 79.37892822 197.609375 80.42578125 C197.05231873 82.02999939 197.05231873 82.02999939 196.48400879 83.66662598 C195.2481132 87.21837902 193.99917312 90.7653971 192.75 94.3125 C191.88176654 96.79816969 191.01426362 99.28409467 190.14746094 101.77026367 C188.11517278 107.59425887 186.07316669 113.41479528 184.02680588 119.23385906 C182.09463102 124.72861306 180.16906452 130.22566821 178.24443054 135.72306824 C169.82454827 159.76739352 161.33170927 183.78545422 152.71777344 207.76098633 C149.70960594 216.14251732 146.75696234 224.53166474 144 233 C143.34 233 142.68 233 142 233 C140.79833984 231.37036133 140.79833984 231.37036133 139.4609375 229.08203125 C138.96730713 228.24679932 138.47367676 227.41156738 137.96508789 226.55102539 C137.44035889 225.64731201 136.91562988 224.74359863 136.375 223.8125 C135.27786404 221.95281795 134.18020835 220.09344242 133.08203125 218.234375 C132.54916504 217.32751953 132.01629883 216.42066406 131.46728516 215.48632812 C127.94975683 209.52584418 124.27250019 203.66228037 120.62353516 197.78173828 C113.77681477 186.74685269 106.972429 175.68850984 100.23193359 164.58837891 C96.35259647 158.20589708 92.43949754 151.84550342 88.5 145.5 C83.92255661 138.12569542 79.38399508 130.72886074 74.875 123.3125 C74.28517334 122.3423999 73.69534668 121.3722998 73.08764648 120.37280273 C70.90991819 116.78989307 68.73290273 113.20655072 66.55615234 109.62304688 C60.95870551 100.4141491 55.28902075 91.25425688 49.5625 82.125 C44.39067422 73.88004147 39.32284537 65.5828033 34.34350586 57.22045898 C30.55255552 50.87298372 26.62835039 44.61889705 22.6574707 38.3828125 C17.90494029 30.89934463 13.302214 23.32725027 8.71923828 15.73901367 C5.26751412 10.02682748 5.26751412 10.02682748 1.59375 4.45703125 C0 2 0 2 0 0 Z " fill="#EBEAEB" transform="translate(440,601)"/>
<path d="M0 0 C0.94258759 0.00291284 1.88517519 0.00582568 2.85632604 0.00882679 C3.84948369 0.00797237 4.84264134 0.00711794 5.86589468 0.00623763 C9.22095361 0.00457982 12.57596343 0.0101091 15.93101782 0.01555592 C18.32522353 0.01583775 20.71942934 0.01568013 23.113635 0.01511341 C28.28215861 0.0148851 33.45067094 0.01773642 38.61919111 0.02335125 C46.09208468 0.03146419 53.56497213 0.03408126 61.03786962 0.03533924 C73.16094721 0.03753009 85.28401809 0.04419106 97.40709203 0.05364186 C109.18638857 0.06281513 120.96568328 0.06989638 132.74498266 0.07414967 C133.83334846 0.07454375 133.83334846 0.07454375 134.94370145 0.0749458 C138.58356012 0.0762508 142.2234188 0.07751452 145.86327749 0.0787577 C176.0791404 0.08913133 206.29499517 0.10682465 236.5108518 0.12908131 C235.41431406 2.02454301 234.31577599 3.91884758 233.21641821 5.81267506 C232.29912435 7.39520069 232.29912435 7.39520069 231.36329931 9.00969654 C228.69937157 13.49555408 225.81384886 17.81284981 222.8858518 22.12908131 C221.65182841 23.96438008 220.41877817 25.80033351 219.18663305 27.63689381 C218.57126684 28.55373951 217.95590063 29.47058522 217.32188696 30.41521412 C212.8819312 37.06856384 208.55831609 43.79845058 204.21007055 50.51189381 C202.43062926 53.25264246 200.64368098 55.98836503 198.8546018 58.72283131 C192.72443413 68.09356016 186.62881154 77.48240004 180.6358518 86.94158131 C174.83445735 96.09807848 168.91837689 105.17557862 162.97276586 114.23894459 C158.06162982 121.73413124 153.20553962 129.26230214 148.3858518 136.81658131 C141.3877828 147.78501496 134.29437414 158.68873912 127.17589086 169.57927662 C124.80100943 173.21611851 122.43416769 176.85809544 120.0733518 180.50408131 C119.64900854 181.15924732 119.22466528 181.81441334 118.78746313 182.48943287 C116.03917207 186.74152491 113.31210742 191.00677917 110.59288305 195.27751881 C109.8979978 196.36758229 109.20311254 197.45764576 108.48717016 198.58074147 C107.13283985 200.70656957 105.78062507 202.83374767 104.43101782 204.9625774 C103.13923305 206.98997773 101.81686289 208.99819224 100.46568578 210.98650318 C98.39677935 214.1178831 98.39677935 214.1178831 97.01109594 217.78728443 C95.09495178 221.79932158 93.46071587 224.97694471 89.5108518 227.12908131 C79.14049882 229.21904517 67.73671288 227.62461512 57.27476782 226.83171803 C43.00308559 225.21382801 43.00308559 225.21382801 30.21763891 230.03807789 C26.23680415 235.02630912 23.82084583 240.63241807 21.54213232 246.55351979 C20.19365987 249.92124921 18.48746998 252.77514443 16.5499143 255.84001881 C15.98385473 256.78200123 15.41779516 257.72398365 14.83458227 258.694511 C14.27400121 259.6216692 13.71342016 260.5488274 13.1358518 261.50408131 C12.51210668 262.53952076 11.88836157 263.57496022 11.24571508 264.64177662 C9.33749296 267.80628103 7.42504378 270.96818502 5.5108518 274.12908131 C4.90950414 275.12262623 4.30815649 276.11617115 3.68858618 277.1398235 C-3.05662503 288.27495085 -9.86595881 299.36827643 -16.73573023 310.42693287 C-20.37428864 316.29600397 -23.94845691 322.20053615 -27.4891482 328.12908131 C-31.77612729 335.29047167 -36.07576137 342.44379843 -40.4266482 349.56658131 C-40.95838648 350.44894459 -41.49012476 351.33130787 -42.03797632 352.24040943 C-45.98364114 358.66649218 -49.74496537 363.62737651 -56.6766482 367.00408131 C-57.96635523 367.64990162 -57.96635523 367.64990162 -59.28211695 368.30876881 C-60.01043726 368.57947193 -60.73875757 368.85017506 -61.4891482 369.12908131 C-62.1491482 368.79908131 -62.8091482 368.46908131 -63.4891482 368.12908131 C-55.71203454 353.63713604 -47.62642334 339.3569276 -39.28455836 325.18328053 C-36.27774714 320.06834874 -33.29006456 314.94227501 -30.3016482 309.81658131 C-29.72020045 308.8196526 -29.13875269 307.82272389 -28.53968531 306.79558522 C-17.64092171 288.11389854 -17.64092171 288.11389854 -6.96131617 269.30657154 C-3.94095699 263.91591294 -0.87485385 258.55225545 2.1983518 253.19158131 C7.52196885 243.9036794 12.75964999 234.56899857 17.96666235 225.21526295 C18.81224706 223.6992046 18.81224706 223.6992046 19.6749143 222.15251881 C20.17458715 221.25452564 20.67426 220.35653248 21.18907446 219.4313274 C22.22750267 217.62261331 23.3539621 215.86441587 24.5108518 214.12908131 C26.84559911 213.89858204 26.84559911 213.89858204 29.80821508 214.09343678 C31.47293356 214.18316761 31.47293356 214.18316761 33.17128271 214.27471119 C34.37904363 214.34782521 35.58680456 214.42093922 36.8311643 214.49626881 C64.06719136 217.36180904 64.06719136 217.36180904 88.2314176 209.51581532 C92.92437696 204.30800611 95.33516162 197.80286858 97.44102758 191.21550709 C98.93516744 186.90493748 101.25011557 183.57514624 103.9483518 179.94158131 C104.73611723 178.78322515 105.5176146 177.62057592 106.2921018 176.45330006 C107.0242893 175.35630787 107.7564768 174.25931568 108.5108518 173.12908131 C110.75869339 169.68311641 112.9732458 166.21583649 115.1905393 162.75017506 C117.6355772 158.92863284 120.10459556 155.12282601 122.5733518 151.31658131 C127.24694777 144.10512283 131.88200303 136.86932612 136.5108518 129.62908131 C145.50215875 115.56742529 154.5760263 101.56098413 163.67564672 87.56926686 C167.12775991 82.26040883 170.57277654 76.94703982 174.0108518 71.62908131 C178.55015161 64.6077667 183.10460852 57.59639487 187.66392797 50.58806568 C190.28126698 46.5636683 192.89536918 42.53727782 195.49913305 38.50408131 C195.97608618 37.7654485 196.4530393 37.02681568 196.94444555 36.26580006 C197.81633098 34.91474813 198.68751608 33.56324377 199.5577268 32.21111256 C203.4772144 26.13778513 207.49950987 20.14609421 211.5108518 14.12908131 C96.6708518 13.63408131 96.6708518 13.63408131 -20.4891482 13.12908131 C-20.4891482 12.46908131 -20.4891482 11.80908131 -20.4891482 11.12908131 C-18.37625478 9.36294926 -16.26148126 7.70255196 -14.0516482 6.06658131 C-5.99578129 0.01407013 -5.99578129 0.01407013 0 0 Z " fill="#F3F3F4" transform="translate(922.4891481995583,371.8709186911583)"/>
<path d="M0 0 C0.33 0.66 0.66 1.32 1 2 C0.37996094 2.37769531 -0.24007812 2.75539063 -0.87890625 3.14453125 C-7.80729824 7.45082438 -14.36598515 12.12380084 -20.9140625 16.98046875 C-25.22387725 20.17668771 -29.57998476 23.30680366 -33.9375 26.4375 C-40.33684722 31.0435078 -46.66814455 35.72966759 -52.96069336 40.48022461 C-57.92700384 44.21983125 -62.95128039 47.87261291 -68 51.5 C-75.74746059 57.06926346 -83.39946207 62.75454536 -91.01464844 68.50292969 C-94.42108436 71.07158009 -97.83599272 73.62892669 -101.25 76.1875 C-104.9772713 78.9817097 -108.70419437 81.77634672 -112.42578125 84.578125 C-113.46089844 85.35671875 -114.49601563 86.1353125 -115.5625 86.9375 C-116.45066406 87.60652344 -117.33882812 88.27554688 -118.25390625 88.96484375 C-119.16011719 89.63644531 -120.06632813 90.30804688 -121 91 C-121.99266373 91.85526779 -122.98532745 92.71053558 -124.0080719 93.59172058 C-128.66404346 96.88639077 -133.07515458 96.66976471 -138.61694336 96.56762695 C-139.6615976 96.56835709 -140.70625183 96.56908722 -141.78256226 96.56983948 C-145.21885982 96.56636951 -148.65378438 96.52753406 -152.08984375 96.48828125 C-154.47879801 96.47895108 -156.86776186 96.47183593 -159.25672913 96.46684265 C-165.53201906 96.44778922 -171.80672662 96.3987015 -178.08178711 96.34332275 C-184.48999148 96.29209526 -190.89829033 96.26932106 -197.30664062 96.24414062 C-209.87134162 96.19058216 -222.43563978 96.10625511 -235 96 C-231.37199837 93.15705953 -227.62027583 91.4183906 -223.375 89.6875 C-222.57811768 89.3577417 -221.78123535 89.0279834 -220.96020508 88.68823242 C-219.09085438 87.91568154 -217.22039625 87.1458074 -215.34912109 86.37792969 C-212.18675284 85.07683577 -209.02854598 83.76621268 -205.87145996 82.45237732 C-202.89277163 81.21336171 -199.91261945 79.97789306 -196.93218994 78.74307251 C-195.45618506 78.13117082 -193.98054721 77.51838288 -192.50531006 76.90463257 C-184.08417071 73.40430543 -175.65669148 70.07462189 -167.03125 67.10449219 C-163.12719391 65.68197691 -159.40714604 63.95111691 -155.6484375 62.1875 C-152.05999263 60.57852177 -148.3882409 59.27464216 -144.68359375 57.9609375 C-138.68158491 55.81174656 -132.82812028 53.40595887 -127.0625 50.6875 C-121.18991486 47.97643442 -115.15337602 45.79584399 -109.07421875 43.60205078 C-103.39881727 41.54618864 -97.85899108 39.31387946 -92.34765625 36.84765625 C-90 36 -90 36 -86 36 C-86 35.34 -86 34.68 -86 34 C-81.82323468 32.38237754 -77.64639148 30.76495636 -73.46948242 29.14770508 C-72.05474855 28.59990603 -70.64003432 28.05205622 -69.2253418 27.50415039 C-67.1672094 26.70705332 -65.10900287 25.91014792 -63.05078125 25.11328125 C-62.37022675 24.84968307 -61.68967224 24.5860849 -60.98849487 24.3144989 C-56.66155412 22.63958226 -52.32974374 20.97781288 -47.99609375 19.3203125 C-43.2106343 17.48174112 -38.47168775 15.55785758 -33.75 13.5625 C-27.21060769 10.82617984 -20.61025764 8.36730845 -13.88378906 6.12915039 C-9.01483379 4.47756909 -4.56208607 2.37513288 0 0 Z " fill="#0747F2" transform="translate(980,286)"/>
<path d="M0 0 C3 2 3 2 3.70776367 4.28735352 C3.85963135 5.22506592 4.01149902 6.16277832 4.16796875 7.12890625 C4.42416992 8.68254883 4.42416992 8.68254883 4.68554688 10.26757812 C4.93401367 11.89856445 4.93401367 11.89856445 5.1875 13.5625 C5.36474609 14.62275391 5.54199219 15.68300781 5.72460938 16.77539062 C7.25536089 26.35588563 7.99226731 34.06377599 4.0625 43.07421875 C3.75061234 43.82445312 3.43872467 44.5746875 3.11738586 45.34765625 C2.09323032 47.80086787 1.04689364 50.24391609 0 52.6875 C-0.7225393 54.40605668 -1.4436264 56.12522458 -2.16333008 57.8449707 C-3.66444052 61.42398792 -5.17501371 64.99878102 -6.69384766 68.5703125 C-8.96215255 73.9045706 -11.20809501 79.24802561 -13.44921875 84.59375 C-15.52203205 89.53477065 -17.59616435 94.47519687 -19.68164062 99.41088867 C-19.99777313 100.1599649 -20.31390564 100.90904114 -20.63961792 101.68081665 C-21.25426404 103.13154205 -21.87259191 104.58071402 -22.49490356 106.02816772 C-23.84445673 109.17920037 -25.10593642 112.30255926 -26.23974609 115.54077148 C-28.5204251 121.91894988 -30.4877446 125.31875914 -36.58398438 128.45703125 C-37.46376953 128.86308594 -38.34355469 129.26914062 -39.25 129.6875 C-40.19166016 130.161875 -41.13332031 130.63625 -42.10351562 131.125 C-44.21329106 132.18593099 -46.33101235 133.23116056 -48.45507812 134.26318359 C-52.335112 136.16418641 -56.17789697 138.12869334 -60.015625 140.11328125 C-60.70658768 140.47050766 -61.39755035 140.82773407 -62.10945129 141.19578552 C-63.524856 141.92779278 -64.94016388 142.6599873 -66.3553772 143.3923645 C-68.50598251 144.50308979 -70.65915007 145.60868119 -72.81323242 146.71264648 C-83.3853263 152.13354522 -93.84294027 157.73887898 -104.24462891 163.48046875 C-109.5717851 166.4182873 -114.90914922 169.33716904 -120.25 172.25 C-121.29357666 172.82395508 -122.33715332 173.39791016 -123.41235352 173.98925781 C-124.37455811 174.51358398 -125.3367627 175.03791016 -126.328125 175.578125 C-127.1830957 176.04637695 -128.03806641 176.51462891 -128.91894531 176.99707031 C-131 178 -131 178 -133 178 C-131.6068597 174.74698204 -130.05039845 172.96613784 -127.3125 170.75 C-123.08040159 167.16723077 -119.56766404 163.22953836 -116 159 C-114.77305443 157.60221391 -113.54391166 156.20635319 -112.3125 154.8125 C-110.48821879 152.74440078 -108.79689694 150.71574345 -107.19140625 148.46875 C-104.57637711 145.52276352 -102.19395393 144.33313894 -98.625 142.6875 C-97.36548584 142.0908184 -96.10771667 141.49044183 -94.8515625 140.88671875 C-94.2112207 140.57911621 -93.57087891 140.27151367 -92.91113281 139.95458984 C-89.86474226 138.43295123 -86.93666499 136.72152187 -84 135 C-79.47168446 132.35864016 -74.90482243 129.92166212 -70.1875 127.625 C-68.43066462 126.7337081 -66.67386734 125.84233751 -64.91845703 124.94824219 C-63.57653502 124.2849659 -62.22198073 123.64691942 -60.85888672 123.02832031 C-51.31013114 118.67377108 -45.18861177 114.71341467 -41.25 104.6875 C-40.34917734 102.21149049 -39.50500492 99.72970795 -38.70849609 97.21826172 C-37.78961211 94.34128726 -36.6832391 91.55370945 -35.5625 88.75 C-35.18222656 87.74710938 -34.80195313 86.74421875 -34.41015625 85.7109375 C-32.46404071 80.58958083 -30.48543668 75.48122248 -28.5 70.375 C-28.13205322 69.42077148 -27.76410645 68.46654297 -27.38500977 67.48339844 C-25.5446051 62.75639578 -23.61958127 58.1038049 -21.48828125 53.5 C-18.93954695 47.97069259 -16.78440768 42.3384444 -14.6875 36.625 C-13.90922956 34.52980843 -13.13057552 32.43475933 -12.3515625 30.33984375 C-11.96258789 29.29038574 -11.57361328 28.24092773 -11.17285156 27.15966797 C-9.31814703 22.16308469 -7.44604426 17.17327532 -5.5625 12.1875 C-5.2327417 11.30465332 -4.9029834 10.42180664 -4.56323242 9.51220703 C-4.25490479 8.6973584 -3.94657715 7.88250977 -3.62890625 7.04296875 C-3.2278064 5.97598755 -3.2278064 5.97598755 -2.81860352 4.88745117 C-2 3 -2 3 0 0 Z " fill="#EAEAEA" transform="translate(415,571)"/>
<path d="M0 0 C2.98904548 1.91510524 5.18706945 4.40217268 7.51953125 7.0390625 C8.00373535 7.57668213 8.48793945 8.11430176 8.98681641 8.66821289 C12.26649126 12.31975897 15.4968884 16.01432464 18.703125 19.73046875 C20.12593639 21.32327839 21.60519022 22.80975148 23.14453125 24.2890625 C25.20703125 26.4140625 25.20703125 26.4140625 25.20703125 28.4140625 C9.76474241 35.95581501 -5.67470335 43.49194273 -21.29296875 50.6640625 C-37.46634643 58.1037452 -53.42777494 65.97570998 -69.41464233 73.80581665 C-80.40046535 79.18431036 -91.4181501 84.49602243 -102.44091797 89.79833984 C-105.35769867 91.20425788 -108.27197951 92.6151963 -111.18484497 94.02920532 C-114.07379047 95.43093205 -116.96488519 96.82821755 -119.85546875 98.2265625 C-120.90347656 98.73703125 -121.95148438 99.2475 -123.03125 99.7734375 C-123.99546875 100.23878906 -124.9596875 100.70414063 -125.953125 101.18359375 C-126.79496338 101.59198486 -127.63680176 102.00037598 -128.50415039 102.42114258 C-130.59949052 103.33012906 -132.56378897 103.94052611 -134.79296875 104.4140625 C-130.8765317 100.33946165 -126.69506514 96.76567889 -122.29296875 93.2265625 C-121.58446777 92.65413818 -120.8759668 92.08171387 -120.14599609 91.49194336 C-114.90522584 87.27259935 -109.60304169 83.14369223 -104.25390625 79.0625 C-100.16025281 75.93883834 -96.10339594 72.76821212 -92.04296875 69.6015625 C-86.81368093 65.52439702 -81.56742579 61.47229626 -76.28710938 57.46142578 C-69.26031299 52.12332724 -62.3545184 46.66550908 -55.52636719 41.07568359 C-49.96846921 36.53293307 -44.30412253 32.1515859 -38.59765625 27.79638672 C-35.02527634 25.06007516 -31.47143146 22.29987002 -27.91796875 19.5390625 C-27.16016113 18.95044434 -26.40235352 18.36182617 -25.62158203 17.75537109 C-19.83063097 13.24635801 -14.08924433 8.67807279 -8.38720703 4.05712891 C-2.39124584 -0.78145289 -2.39124584 -0.78145289 0 0 Z " fill="#0747F4" transform="translate(446.79296875,786.5859375)"/>
<path d="M0 0 C100.98 0 201.96 0 306 0 C306 0.99 306 1.98 306 3 C305.05269635 3.00260437 305.05269635 3.00260437 304.08625525 3.00526136 C266.68438502 3.10821393 229.28253296 3.21631005 191.88069717 3.33111694 C187.39320253 3.34488708 182.90570775 3.35861409 178.41821289 3.37231445 C177.52480601 3.37504276 176.63139912 3.37777106 175.7109193 3.38058204 C161.23116716 3.42469769 146.75140722 3.46531732 132.2716414 3.50465261 C117.42212196 3.5450699 102.57261708 3.58922636 87.72311908 3.63687855 C78.55482285 3.66618111 69.38652773 3.69254164 60.21821258 3.71517897 C53.93737472 3.73096584 47.65655466 3.75037356 41.37573656 3.77266841 C37.74811347 3.78543712 34.12050411 3.79657128 30.49286461 3.80341911 C26.56587131 3.81087359 22.63892874 3.82593318 18.71195984 3.84178162 C17.55730482 3.84275972 16.40264981 3.84373783 15.21300524 3.84474558 C13.64174261 3.85295724 13.64174261 3.85295724 12.0387373 3.8613348 C11.13158543 3.86399284 10.22443356 3.86665089 9.28979224 3.86938947 C6.83644548 3.9091353 6.83644548 3.9091353 4 5 C2.68 3.35 1.36 1.7 0 0 Z " fill="#303030" transform="translate(172,361)"/>
<path d="M0 0 C140.91 0 281.82 0 427 0 C426.34 1.65 425.68 3.3 425 5 C424.34 4.01 423.68 3.02 423 2 C419.92330358 1.54368787 419.92330358 1.54368787 416.21581268 1.62526989 C415.50667561 1.62120916 414.79753854 1.61714844 414.06691247 1.61296466 C411.66644266 1.60293824 409.2665465 1.61449118 406.86608887 1.6257782 C405.1374943 1.62304038 403.40890138 1.61899069 401.68031263 1.61373454 C396.91136846 1.60309813 392.14261035 1.61130859 387.37367415 1.62248504 C382.23796359 1.6312942 377.10227825 1.62289309 371.96656799 1.61662292 C361.89825779 1.60711363 351.83001902 1.61375336 341.7617141 1.62588587 C330.04837213 1.63947718 318.33504736 1.63787055 306.62169951 1.63575254 C285.72874199 1.63255954 264.83581852 1.64424817 243.94287109 1.66381836 C223.64761315 1.68282384 203.35239511 1.68990629 183.05712891 1.68432617 C160.9819611 1.67827467 138.90681087 1.6784339 116.83164454 1.689812 C114.47980913 1.69101935 112.12797372 1.69222534 109.77613831 1.69342995 C108.6188475 1.69403349 107.4615567 1.69463702 106.26919648 1.69525885 C98.09526939 1.69914573 89.92134883 1.69874141 81.74742126 1.6968441 C71.79254381 1.69472664 61.8377014 1.699912 51.88283384 1.71445765 C46.79913765 1.72172425 41.71549261 1.72575948 36.63179207 1.72121429 C31.98469783 1.71716039 27.33770955 1.72223865 22.69063145 1.73484037 C21.00291693 1.73778658 19.31519253 1.73730898 17.62748045 1.73319729 C15.34625367 1.72814118 13.06538848 1.73520959 10.78418732 1.74552441 C9.51320836 1.74639118 8.24222939 1.74725796 6.93273592 1.748151 C3.87722244 1.69343515 3.87722244 1.69343515 2 4 C1.34 2.68 0.68 1.36 0 0 Z " fill="#EDEDED" transform="translate(591,446)"/>
<path d="M0 0 C1.32 0.33 2.64 0.66 4 1 C4 1.66 4 2.32 4 3 C4.680625 3.2475 5.36125 3.495 6.0625 3.75 C10.82208219 5.77535412 15.05957837 7.58936756 18 12 C10.41 12 2.82 12 -5 12 C-3.54996379 7.64989137 -2.09990776 4.00891482 0 0 Z " fill="#0233C4" transform="translate(904,548)"/>
<path d="M0 0 C-0.65266469 2.00461299 -1.32204472 4.00379834 -2 6 C-2.38381836 7.25611084 -2.38381836 7.25611084 -2.77539062 8.53759766 C-4.31358911 11.63055419 -5.6174319 12.26587261 -8.71875 13.7109375 C-9.65074219 14.15050781 -10.58273437 14.59007812 -11.54296875 15.04296875 C-12.51878906 15.48253906 -13.49460937 15.92210937 -14.5 16.375 C-15.47582031 16.83777344 -16.45164062 17.30054688 -17.45703125 17.77734375 C-22.76409912 20.2363586 -22.76409912 20.2363586 -25 21 C-25.66 20.67 -26.32 20.34 -27 20 C-11.88853069 7.66541273 -11.88853069 7.66541273 -5.625 2.6875 C-4.95726562 2.15511719 -4.28953125 1.62273438 -3.6015625 1.07421875 C-2 0 -2 0 0 0 Z " fill="#0548ED" transform="translate(339,870)"/>
<path d="M0 0 C26.73 0.33 53.46 0.66 81 1 C81 1.33 81 1.66 81 2 C54.27 2.33 27.54 2.66 0 3 C0 2.01 0 1.02 0 0 Z " fill="#EEEDED" transform="translate(916,372)"/>
<path d="M0 0 C0.66 0.33 1.32 0.66 2 1 C-1.26355768 3.1777843 -4.53697584 5.3402644 -7.8125 7.5 C-8.74126953 8.12003906 -9.67003906 8.74007812 -10.62695312 9.37890625 C-11.51962891 9.96542969 -12.41230469 10.55195312 -13.33203125 11.15625 C-14.15421143 11.70087891 -14.9763916 12.24550781 -15.82348633 12.80664062 C-19.33008031 14.72926893 -22.24981191 13.81085148 -26 13 C-23.22648857 10.78833295 -20.54668841 9.2044389 -17.3046875 7.7734375 C-16.42425781 7.3815625 -15.54382813 6.9896875 -14.63671875 6.5859375 C-13.72535156 6.18632813 -12.81398438 5.78671875 -11.875 5.375 C-10.05980788 4.57051093 -8.24469957 3.76583272 -6.4296875 2.9609375 C-5.62772949 2.60821777 -4.82577148 2.25549805 -3.99951172 1.89208984 C-2.65265135 1.29118291 -1.31912759 0.65956379 0 0 Z " fill="#0936AE" transform="translate(999,706)"/>
<path d="M0 0 C2.40444946 -0.36076355 2.40444946 -0.36076355 5.45947266 -0.34057617 C6.60050446 -0.34034958 7.74153625 -0.34012299 8.91714478 -0.33988953 C10.77186905 -0.31666374 10.77186905 -0.31666374 12.6640625 -0.29296875 C13.92640717 -0.28872391 15.18875183 -0.28447906 16.48934937 -0.28010559 C19.84661351 -0.26613137 23.20326932 -0.23917302 26.56036377 -0.20599365 C29.98550148 -0.17531352 33.41070201 -0.1616047 36.8359375 -0.14648438 C43.5574605 -0.11334641 50.27869511 -0.06309539 57 0 C57 0.33 57 0.66 57 1 C56.34489441 1.01030746 55.68978882 1.02061493 55.01483154 1.03123474 C48.20168161 1.13934424 41.38866273 1.25393883 34.57568359 1.37231445 C32.03241719 1.41564899 29.48912198 1.45732513 26.94580078 1.49731445 C23.29190381 1.55505258 19.63815169 1.61873725 15.984375 1.68359375 C14.84570984 1.70030624 13.70704468 1.71701874 12.53387451 1.73423767 C10.94267792 1.7641555 10.94267792 1.7641555 9.31933594 1.79467773 C8.38667908 1.81022202 7.45402222 1.8257663 6.49310303 1.84178162 C4.19646138 1.98753208 2.20298873 2.3564033 0 3 C0 3.99 0 4.98 0 6 C-1.98 6.99 -1.98 6.99 -4 8 C-2.87548273 5.0280615 -1.77706209 2.66559313 0 0 Z " fill="#171716" transform="translate(955,599)"/>
<path d="M0 0 C12.21 0 24.42 0 37 0 C37 0.33 37 0.66 37 1 C28.42 1 19.84 1 11 1 C11 1.99 11 2.98 11 4 C6.00837213 3.52003578 4.14964417 3.11223313 0 0 Z " fill="#222222" transform="translate(841,521)"/>
<path d="M0 0 C0.99 0.33 1.98 0.66 3 1 C-2.22282859 6.64851368 -9.64839652 9.38842231 -16.69921875 12.0859375 C-19.23705005 13.05626795 -19.23705005 13.05626795 -22.5 14.75 C-25 16 -25 16 -27 16 C-27 15.34 -27 14.68 -27 14 C-24.35475306 12.74874657 -21.70886799 11.49887874 -19.0625 10.25 C-18.28648437 9.88310059 -17.51046875 9.51620117 -16.7109375 9.13818359 C-12.66695954 7.23219649 -8.61354527 5.37743717 -4.5 3.625 C-0.94959846 2.41830258 -0.94959846 2.41830258 0 0 Z " fill="#0266EC" transform="translate(414,729)"/>
<path d="M0 0 C0.33 0.66 0.66 1.32 1 2 C0.24074219 2.48210937 -0.51851562 2.96421875 -1.30078125 3.4609375 C-2.29464844 4.09257812 -3.28851562 4.72421875 -4.3125 5.375 C-5.29863281 6.00148438 -6.28476562 6.62796875 -7.30078125 7.2734375 C-9.21287929 8.49651613 -11.1114034 9.7409356 -13 11 C-13.99 10.34 -14.98 9.68 -16 9 C-18.11280345 8.36707617 -18.11280345 8.36707617 -20 8 C-19.2265625 7.75765625 -18.453125 7.5153125 -17.65625 7.265625 C-11.46062886 5.27198453 -5.7310226 3.08593525 0 0 Z " fill="#0A35B0" transform="translate(980,286)"/>
<path d="M0 0 C1.32 0.66 2.64 1.32 4 2 C1.61664713 4.67438936 -0.87036148 6.15158012 -4.0625 7.75 C-4.94035156 8.19859375 -5.81820313 8.6471875 -6.72265625 9.109375 C-7.47417969 9.40328125 -8.22570312 9.6971875 -9 10 C-9.66 9.67 -10.32 9.34 -11 9 C-7.37 6.03 -3.74 3.06 0 0 Z " fill="#0942D6" transform="translate(323,881)"/>
<path d="M0 0 C0.33 1.32 0.66 2.64 1 4 C1.99 5.485 1.99 5.485 3 7 C2 10 2 10 -1 12 C-1.99 11.67 -2.98 11.34 -4 11 C-2.68 7.37 -1.36 3.74 0 0 Z " fill="#CFCFCF" transform="translate(277,742)"/>
<path d="M0 0 C-2.60295276 1.31495542 -5.20728033 2.62704986 -7.8125 3.9375 C-8.55048828 4.31068359 -9.28847656 4.68386719 -10.04882812 5.06835938 C-10.76103516 5.42607422 -11.47324219 5.78378906 -12.20703125 6.15234375 C-12.8616333 6.48226318 -13.51623535 6.81218262 -14.19067383 7.15209961 C-16 8 -16 8 -19 9 C-19 8.34 -19 7.68 -19 7 C-3.51919866 -1.75959933 -3.51919866 -1.75959933 0 0 Z " fill="#0263EB" transform="translate(385,746)"/>
<path d="M0 0 C5.24972347 4.10037573 9.20962911 8.52964787 13 14 C12.01 14.495 12.01 14.495 11 15 C9 14 9 14 8 11 C7.34 10.67 6.68 10.34 6 10 C4.9935725 8.33720673 3.99414593 6.67016516 3 5 C2.443125 4.443125 1.88625 3.88625 1.3125 3.3125 C0.879375 2.879375 0.44625 2.44625 0 2 C0 1.34 0 0.68 0 0 Z " fill="#0258E4" transform="translate(465,749)"/>
<path d="M0 0 C0 0.99 0 1.98 0 3 C-2.125 4.8125 -2.125 4.8125 -5 6 C-8.3125 5.1875 -8.3125 5.1875 -11 4 C-7.2060585 0.99101192 -4.96966376 0 0 0 Z " fill="#083ECF" transform="translate(984,715)"/>
<path d="M0 0 C0 0.99 0 1.98 0 3 C-3.465 4.485 -3.465 4.485 -7 6 C-7.66 4.68 -8.32 3.36 -9 2 C-5.86501708 0.14223235 -3.62528568 -0.20140476 0 0 Z " fill="#0E4BF3" transform="translate(334,878)"/>
<path d="M0 0 C4.08055151 0.50547372 5.66272295 2.50088882 8.25 5.5625 C8.95640625 6.38878906 9.6628125 7.21507812 10.390625 8.06640625 C10.92171875 8.70449219 11.4528125 9.34257813 12 10 C11.01 10.33 10.02 10.66 9 11 C7.49703315 9.35687553 5.99769719 7.71042916 4.5 6.0625 C3.6646875 5.14597656 2.829375 4.22945312 1.96875 3.28515625 C0 1 0 1 0 0 Z " fill="#0457E4" transform="translate(477,765)"/>
<path d="M0 0 C1.04293785 3.38954801 1.30754089 6.46327974 1 10 C0.01 10.66 -0.98 11.32 -2 12 C-2.72382467 14.05925139 -2.72382467 14.05925139 -3 16 C-3.66 16 -4.32 16 -5 16 C-3.41078475 10.63904723 -1.81027062 5.29156027 0 0 Z " fill="#C3C2C3" transform="translate(305,668)"/>
<path d="M0 0 C0.66 0 1.32 0 2 0 C1.60079865 1.75406653 1.17984334 3.50318982 0.75 5.25 C0.51796875 6.22453125 0.2859375 7.1990625 0.046875 8.203125 C-1.11799266 11.31523411 -2.51330545 12.84212456 -5 15 C-4.54705135 13.24859857 -4.08741252 11.49892656 -3.625 9.75 C-3.36976563 8.77546875 -3.11453125 7.8009375 -2.8515625 6.796875 C-2.10401491 4.34162697 -1.22876183 2.24382595 0 0 Z " fill="#CBCACC" transform="translate(707,689)"/>
<path d="M0 0 C0.33 0 0.66 0 1 0 C1.08131463 1.43655854 1.13933559 2.8744483 1.1875 4.3125 C1.22230469 5.11300781 1.25710938 5.91351562 1.29296875 6.73828125 C1 9 1 9 -0.38671875 10.79296875 C-2 12 -2 12 -4 12 C-3.52309796 10.37433394 -3.04340334 8.74948689 -2.5625 7.125 C-2.29566406 6.22007812 -2.02882813 5.31515625 -1.75390625 4.3828125 C-1 2 -1 2 0 0 Z " fill="#0444D8" transform="translate(617,810)"/>
<path d="M0 0 C1.21365463 4.019693 0.47082855 6.05198652 -1 10 C-1.309375 11.258125 -1.61875 12.51625 -1.9375 13.8125 C-2.288125 14.864375 -2.63875 15.91625 -3 17 C-3.99 17.33 -4.98 17.66 -6 18 C-4.23536928 11.89262558 -2.30442525 5.92566493 0 0 Z " fill="#B6B5B7" transform="translate(297,689)"/>
<path d="M0 0 C0.66 0.33 1.32 0.66 2 1 C1.67 3.31 1.34 5.62 1 8 C0.01 8.33 -0.98 8.66 -2 9 C-2 9.99 -2 10.98 -2 12 C-2.66 12 -3.32 12 -4 12 C-3.52494322 10.18641846 -3.04483958 8.37415821 -2.5625 6.5625 C-2.29566406 5.55316406 -2.02882813 4.54382813 -1.75390625 3.50390625 C-1 1 -1 1 0 0 Z " fill="#E7E6E7" transform="translate(325,617)"/>
<path d="M0 0 C2.1640625 -0.29296875 2.1640625 -0.29296875 4.625 -0.1875 C5.44226563 -0.16042969 6.25953125 -0.13335938 7.1015625 -0.10546875 C8.04128906 -0.05326172 8.04128906 -0.05326172 9 0 C9 0.33 9 0.66 9 1 C6.03 1.66 3.06 2.32 0 3 C0 3.99 0 4.98 0 6 C-1.98 6.99 -1.98 6.99 -4 8 C-2.87548273 5.0280615 -1.77706209 2.66559313 0 0 Z " fill="#252525" transform="translate(955,599)"/>
<path d="M0 0 C-2.88628401 1.57554035 -5.53342384 2.46276373 -8.75 3.125 C-9.54921875 3.29257812 -10.3484375 3.46015625 -11.171875 3.6328125 C-11.77515625 3.75398437 -12.3784375 3.87515625 -13 4 C-13.33 3.01 -13.66 2.02 -14 1 C-9.32798795 -0.20568053 -4.78503708 -0.09382426 0 0 Z " fill="#0A0A0A" transform="translate(790,521)"/>
<path d="M0 0 C1.125 1.625 1.125 1.625 2 4 C1.375 7.125 1.375 7.125 0 10 C-2.0859375 11.1796875 -2.0859375 11.1796875 -4 12 C-3.52309796 10.37433394 -3.04340334 8.74948689 -2.5625 7.125 C-2.29566406 6.22007812 -2.02882813 5.31515625 -1.75390625 4.3828125 C-1 2 -1 2 0 0 Z " fill="#D1CFD0" transform="translate(744,296)"/>
<path d="M0 0 C1.65 1.65 3.3 3.3 5 5 C4.34 6.65 3.68 8.3 3 10 C2.34 10 1.68 10 1 10 C0.67 6.7 0.34 3.4 0 0 Z " fill="#232324" transform="translate(417,568)"/>
<path d="M0 0 C0.33 0.66 0.66 1.32 1 2 C0.14453125 4.05859375 0.14453125 4.05859375 -1.1875 6.4375 C-1.82751953 7.61119141 -1.82751953 7.61119141 -2.48046875 8.80859375 C-4.08188172 11.11808649 -5.6741412 12.45108761 -8 14 C-6.6744419 10.37723685 -5.05653045 7.36494652 -2.875 4.1875 C-2.33617187 3.39730469 -1.79734375 2.60710937 -1.2421875 1.79296875 C-0.83226562 1.20128906 -0.42234375 0.60960937 0 0 Z " fill="#2B2B2C" transform="translate(1113,442)"/>
<path d="M0 0 C-1.14099526 3.42298577 -2.00085621 4.14758766 -5 6 C-5.99 6 -6.98 6 -8 6 C-8 6.66 -8 7.32 -8 8 C-8.66 8 -9.32 8 -10 8 C-9.9375 6.25 -9.9375 6.25 -9 4 C-6.29950956 1.99159505 -3.44873267 0 0 0 Z " fill="#0443DF" transform="translate(583,380)"/>
<path d="M0 0 C0.763125 0.20625 1.52625 0.4125 2.3125 0.625 C-0.8129959 3.26965038 -3.77538267 4.46914715 -7.6875 5.625 C-6.02612914 1.79106724 -4.59035464 -0.6405146 0 0 Z " fill="#E4E4E4" transform="translate(289.6875,743.375)"/>
<path d="M0 0 C0.66 0.33 1.32 0.66 2 1 C1.34 3.64 0.68 6.28 0 9 C-0.66 9 -1.32 9 -2 9 C-2.33 10.32 -2.66 11.64 -3 13 C-4 11 -4 11 -3.22265625 8.3984375 C-2.83980469 7.40070312 -2.45695313 6.40296875 -2.0625 5.375 C-1.68222656 4.37210938 -1.30195312 3.36921875 -0.91015625 2.3359375 C-0.60980469 1.56507813 -0.30945313 0.79421875 0 0 Z " fill="#B9B8B9" transform="translate(717,659)"/>
<path d="M0 0 C1 3 1 3 -0.125 5.3125 C-2.26213503 8.37572688 -4.56409892 11.16908794 -7 14 C-7 10.11708254 -5.62139506 8.53247465 -3.5 5.3125 C-2.8503125 4.31863281 -2.200625 3.32476562 -1.53125 2.30078125 C-0.77328125 1.16189453 -0.77328125 1.16189453 0 0 Z " fill="#2A2A2B" transform="translate(1152,382)"/>
<path d="M0 0 C0.66 0.66 1.32 1.32 2 2 C1.69903201 6.13830989 1.32101984 8.51847024 -1 12 C-2.45606519 7.47907032 -1.27032841 4.48351204 0 0 Z " fill="#023FDF" transform="translate(574,933)"/>
<path d="M0 0 C0.33 1.32 0.66 2.64 1 4 C1.99 4.33 2.98 4.66 4 5 C2.35 6.65 0.7 8.3 -1 10 C-1.66 9.67 -2.32 9.34 -3 9 C-2.01 6.03 -1.02 3.06 0 0 Z " fill="#CACACA" transform="translate(635,894)"/>
<path d="M0 0 C2.31 0 4.62 0 7 0 C7 0.99 7 1.98 7 3 C5.02 3.99 5.02 3.99 3 5 C2.01 3.35 1.02 1.7 0 0 Z " fill="#0845E6" transform="translate(971,719)"/>
<path d="M0 0 C5.61 0 11.22 0 17 0 C17 0.33 17 0.66 17 1 C16.08476563 1.04898437 15.16953125 1.09796875 14.2265625 1.1484375 C13.03804687 1.22320312 11.84953125 1.29796875 10.625 1.375 C8.84996094 1.47941406 8.84996094 1.47941406 7.0390625 1.5859375 C3.89437681 1.70217346 3.89437681 1.70217346 2 4 C1.34 2.68 0.68 1.36 0 0 Z " fill="#E8E8E8" transform="translate(591,446)"/>
<path d="M0 0 C-5.73166369 3.66189624 -5.73166369 3.66189624 -9 4 C-9.66 3.34 -10.32 2.68 -11 2 C-3.57142857 -1.57142857 -3.57142857 -1.57142857 0 0 Z " fill="#0945DB" transform="translate(762,376)"/>
<path d="M0 0 C-4.455 2.97 -4.455 2.97 -9 6 C-9.33 5.34 -9.66 4.68 -10 4 C-4.7704918 -1.59016393 -4.7704918 -1.59016393 0 0 Z " fill="#0A47E7" transform="translate(963,732)"/>
<path d="M0 0 C0 0.99 0 1.98 0 3 C-2.97 3.66 -5.94 4.32 -9 5 C-9 4.34 -9 3.68 -9 3 C-3.375 0 -3.375 0 0 0 Z " fill="#0462DC" transform="translate(431,710)"/>
<path d="M0 0 C0.66 1.32 1.32 2.64 2 4 C1.34 4 0.68 4 0 4 C0 6.31 0 8.62 0 11 C-0.99 11.495 -0.99 11.495 -2 12 C-3.12377697 8.69564916 -2.89554742 6.9493138 -1.5625 3.75 C-1.27503906 3.04359375 -0.98757813 2.3371875 -0.69140625 1.609375 C-0.46324219 1.07828125 -0.23507812 0.5471875 0 0 Z " fill="#E8E7E8" transform="translate(338,582)"/>
<path d="M0 0 C3.96 1.98 3.96 1.98 8 4 C5 6 5 6 2.8125 5.625 C2.214375 5.41875 1.61625 5.2125 1 5 C0.67 3.35 0.34 1.7 0 0 Z " fill="#023ADD" transform="translate(909,551)"/>
<path d="M0 0 C1.0625 1.8125 1.0625 1.8125 2 4 C0.768606 7.69418201 -1.20791354 9.35109746 -4 12 C-3.52309796 10.37433394 -3.04340334 8.74948689 -2.5625 7.125 C-2.29566406 6.22007812 -2.02882813 5.31515625 -1.75390625 4.3828125 C-1 2 -1 2 0 0 Z " fill="#353536" transform="translate(751,314)"/>
<path d="M0 0 C0.99 0.33 1.98 0.66 3 1 C0.51047079 3.66735273 -1.63408134 5.55746343 -5 7 C-5 6.01 -5 5.02 -5 4 C-2.6875 1.75 -2.6875 1.75 0 0 Z " fill="#020619" transform="translate(691,900)"/>
<path d="M0 0 C0.75 1.5625 0.75 1.5625 1 4 C-0.13084437 6.50286409 -1.52139516 8.67007722 -3 11 C-3.66 11 -4.32 11 -5 11 C-3.77472971 6.94718288 -2.30119506 3.55639236 0 0 Z " fill="#033ED5" transform="translate(771,824)"/>
<path d="M0 0 C0.95992218 3.39220621 0.99230322 5.57204343 0 9 C-0.66 9.66 -1.32 10.32 -2 11 C-3.13643966 7.59068103 -2.86747764 6.99664544 -1.5625 3.8125 C-1.13130859 2.73935547 -1.13130859 2.73935547 -0.69140625 1.64453125 C-0.46324219 1.10183594 -0.23507812 0.55914063 0 0 Z " fill="#E9E9EA" transform="translate(347,558)"/>
<path d="M0 0 C-0.66 1.65 -1.32 3.3 -2 5 C-3.32 5 -4.64 5 -6 5 C-3.74193548 0 -3.74193548 0 0 0 Z " fill="#131313" transform="translate(563,358)"/>
<path d="M0 0 C-0.66 1.32 -1.32 2.64 -2 4 C-2.66 4 -3.32 4 -4 4 C-4.33 5.32 -4.66 6.64 -5 8 C-5.66 8 -6.32 8 -7 8 C-4.73913043 0 -4.73913043 0 0 0 Z " fill="#DCDBDC" transform="translate(553,348)"/>
<path d="M0 0 C0.66 0.33 1.32 0.66 2 1 C1.34 1.66 0.68 2.32 0 3 C-0.99 3 -1.98 3 -3 3 C-3.33 3.99 -3.66 4.98 -4 6 C-5.65 6 -7.3 6 -9 6 C-6.45368965 3.02930459 -3.57769851 1.5224249 0 0 Z " fill="#3D3D3E" transform="translate(692,287)"/>
<path d="M0 0 C0 0.99 0 1.98 0 3 C-2.8125 5.75 -2.8125 5.75 -6 8 C-6.99 7.67 -7.98 7.34 -9 7 C-6.03 4.69 -3.06 2.38 0 0 Z " fill="#0745E3" transform="translate(391,828)"/>
<path d="M0 0 C-0.33 0.99 -0.66 1.98 -1 3 C-5.455 3.495 -5.455 3.495 -10 4 C-4.7826087 0 -4.7826087 0 0 0 Z " fill="#0641D7" transform="translate(854,774)"/>
<path d="M0 0 C0.33 0.66 0.66 1.32 1 2 C1.99 2.33 2.98 2.66 4 3 C1.82575883 5.50037734 0.26954202 6.43628586 -3 7 C-2.01 4.69 -1.02 2.38 0 0 Z " fill="#E7E7E8" transform="translate(862,734)"/>
<path d="M0 0 C0.66 0.33 1.32 0.66 2 1 C1.1875 4.4375 1.1875 4.4375 0 8 C-0.99 8.33 -1.98 8.66 -3 9 C-2.30058404 5.85262818 -1.23921302 2.97411124 0 0 Z " fill="#242424" transform="translate(744,333)"/>
<path d="M0 0 C-0.66 1.32 -1.32 2.64 -2 4 C-2.86625 3.5359375 -2.86625 3.5359375 -3.75 3.0625 C-5.84294184 2.07416636 -7.74535275 1.4831387 -10 1 C-6.52674819 -0.1577506 -3.63932552 -0.06866652 0 0 Z " fill="#073BD0" transform="translate(970,293)"/>
<path d="M0 0 C3.3 0 6.6 0 10 0 C6.81237635 2.12508244 4.73487777 2.5020163 1 3 C0.67 2.01 0.34 1.02 0 0 Z " fill="#111111" transform="translate(852,523)"/>
<path d="M0 0 C2.31 1.98 4.62 3.96 7 6 C6.34 6.66 5.68 7.32 5 8 C2.5 5.6875 2.5 5.6875 0 3 C0 2.01 0 1.02 0 0 Z " fill="#0345E5" transform="translate(516,454)"/>
<path d="M0 0 C0.66 0.33 1.32 0.66 2 1 C-1.60957611 4.2910841 -4.12637153 5.54663921 -9 6 C-6.12050853 3.76039553 -3.23257974 1.70135776 0 0 Z " fill="#D2D2D2" transform="translate(565,340)"/>
<path d="M0 0 C0.33 0 0.66 0 1 0 C1.125 2.875 1.125 2.875 1 6 C0.34 6.66 -0.32 7.32 -1 8 C-1.66 8 -2.32 8 -3 8 C-1.125 1.125 -1.125 1.125 0 0 Z " fill="#CAC9CB" transform="translate(729,336)"/>
<path d="M0 0 C0.99 0.33 1.98 0.66 3 1 C2.34 2.65 1.68 4.3 1 6 C0.34 5.34 -0.32 4.68 -1 4 C-3.06874034 3.3574765 -3.06874034 3.3574765 -5 3 C-2.6875 1.4375 -2.6875 1.4375 0 0 Z " fill="#3B3B3C" transform="translate(759,251)"/>
<path d="M0 0 C2 4 2 4 1.3125 6.625 C0 9 0 9 -3 11 C-2.01 7.37 -1.02 3.74 0 0 Z " fill="#020F3B" transform="translate(232,793)"/>
<path d="M0 0 C0.33 0 0.66 0 1 0 C1.25 3.25 1.25 3.25 1 7 C-0.32 8.32 -1.64 9.64 -3 11 C-2.01 7.37 -1.02 3.74 0 0 Z " fill="#BDBCBD" transform="translate(676,776)"/>
<path d="M0 0 C0.66 0.66 1.32 1.32 2 2 C1.34 3.98 0.68 5.96 0 8 C-0.99 7.67 -1.98 7.34 -3 7 C-2.01 4.69 -1.02 2.38 0 0 Z " fill="#090909" transform="translate(679,763)"/>
<path d="M0 0 C0.33 0 0.66 0 1 0 C1.25 3.25 1.25 3.25 1 7 C-0.32 8.32 -1.64 9.64 -3 11 C-2.01 7.37 -1.02 3.74 0 0 Z " fill="#BDBCBE" transform="translate(683,756)"/>
<path d="M0 0 C0.66 0.33 1.32 0.66 2 1 C1.360625 1.268125 0.72125 1.53625 0.0625 1.8125 C-2.33131686 2.88667752 -2.33131686 2.88667752 -3 6 C-4.65 6.33 -6.3 6.66 -8 7 C-5.42215154 4.35247996 -3.08351902 2.05567935 0 0 Z " fill="#000927" transform="translate(933,751)"/>
<path d="M0 0 C1.32 0.33 2.64 0.66 4 1 C0.55930376 3.29379749 -0.72290301 4 -5 4 C-5 3.01 -5 2.02 -5 1 C-2.525 1.495 -2.525 1.495 0 2 C0 1.34 0 0.68 0 0 Z " fill="#0364F2" transform="translate(424,725)"/>
<path d="M0 0 C0.95904856 3.83619425 0.91892116 5.32431536 0 9 C-0.99 9.33 -1.98 9.66 -3 10 C-2.01 6.7 -1.02 3.4 0 0 Z " fill="#3C3C3C" transform="translate(281,541)"/>
<path d="M0 0 C2.31 0 4.62 0 7 0 C7 0.99 7 1.98 7 3 C4.69 2.67 2.38 2.34 0 2 C0 1.34 0 0.68 0 0 Z " fill="#2B2B2B" transform="translate(845,522)"/>
<path d="M0 0 C0.66 0.33 1.32 0.66 2 1 C1.67 2.32 1.34 3.64 1 5 C0.34 5 -0.32 5 -1 5 C-1 6.65 -1 8.3 -1 10 C-1.66 10 -2.32 10 -3 10 C-2.05066101 6.64566891 -1.10251165 3.30753495 0 0 Z " fill="#023FD5" transform="translate(320,518)"/>
<path d="M0 0 C0.95930163 3.8372065 1.15195929 5.35212892 0 9 C-0.99 9.66 -1.98 10.32 -3 11 C-2.01 7.37 -1.02 3.74 0 0 Z " fill="#0335BC" transform="translate(672,392)"/>
<path d="M0 0 C0.66 0.33 1.32 0.66 2 1 C-1.17320782 4.53586014 -3.16743695 6.58578031 -8 7 C-5.42215154 4.35247996 -3.08351902 2.05567935 0 0 Z " fill="#010B30" transform="translate(956,304)"/>
<path d="M0 0 C0.33 0.66 0.66 1.32 1 2 C3.02463255 2.65213292 3.02463255 2.65213292 5 3 C1.25 6 1.25 6 -1 6 C-0.67 4.02 -0.34 2.04 0 0 Z " fill="#D9D9DA" transform="translate(141,898)"/>
<path d="M0 0 C-0.66 1.65 -1.32 3.3 -2 5 C-3.65 5 -5.3 5 -7 5 C-2.25 0 -2.25 0 0 0 Z " fill="#0544DC" transform="translate(339,870)"/>
<path d="M0 0 C-0.33 0.99 -0.66 1.98 -1 3 C-3.64 3.33 -6.28 3.66 -9 4 C-3.7826087 0 -3.7826087 0 0 0 Z " fill="#063DCC" transform="translate(296,773)"/>
<path d="M0 0 C0.66 0.99 1.32 1.98 2 3 C-0.75 8.875 -0.75 8.875 -3 10 C-2.01 6.7 -1.02 3.4 0 0 Z " fill="#D0CFD0" transform="translate(253,581)"/>
<path d="M0 0 C1.98 1.65 3.96 3.3 6 5 C5.34 5.66 4.68 6.32 4 7 C2.35 5.02 0.7 3.04 -1 1 C-0.67 0.67 -0.34 0.34 0 0 Z " fill="#0A0B0A" transform="translate(277,468)"/>
<path d="M0 0 C0.66 0 1.32 0 2 0 C0.50163895 3.11198065 -1.19933758 6.0534615 -3 9 C-3.66 8.67 -4.32 8.34 -5 8 C-4.21718695 6.66144944 -3.42348123 5.32926356 -2.625 4 C-2.18414063 3.2575 -1.74328125 2.515 -1.2890625 1.75 C-0.86367187 1.1725 -0.43828125 0.595 0 0 Z " fill="#D8D8D9" transform="translate(1117,412)"/>
<path d="M0 0 C-1 3 -1 3 -2.8125 4.25 C-5.33943414 5.11637742 -6.52221994 4.88492145 -9 4 C-2.25 0 -2.25 0 0 0 Z " fill="#333334" transform="translate(658,306)"/>
</svg>
